<svg width="99" height="127" viewBox="0 0 99 127" fill="none" xmlns="http://www.w3.org/2000/svg">
<g clip-path="url(#clip0_9_62)">
<path d="M97.5911 75.633H74.7478V49.1849C74.7478 42.862 79.8619 37.7378 86.1687 37.7378C92.4771 37.7378 97.5896 42.8636 97.5896 49.1849V75.633H97.5911Z" fill="#E8272D"/>
<path d="M0.935278 111.145C0.773049 110.983 0.691162 110.774 0.691162 110.517V87.8021C0.691162 87.5466 0.777684 87.336 0.952273 87.1734C1.12686 87.0108 1.32926 86.9287 1.56256 86.9287H6.06016C6.31509 86.9287 6.53139 87.0108 6.70444 87.1734C6.87903 87.336 6.96555 87.5466 6.96555 87.8021V96.2233H15.542V87.8021C15.542 87.5466 15.6239 87.336 15.7861 87.1734C15.9484 87.0108 16.1585 86.9287 16.4134 86.9287H20.911C21.166 86.9287 21.3761 87.0108 21.5383 87.1734C21.7005 87.336 21.7824 87.5466 21.7824 87.8021V110.517C21.7824 110.774 21.7005 110.983 21.5383 111.145C21.3761 111.308 21.166 111.39 20.911 111.39H16.4134C16.157 111.39 15.9484 111.308 15.7861 111.145C15.6239 110.983 15.542 110.774 15.542 110.517V101.815H6.96555V110.517C6.96555 110.774 6.87903 110.983 6.70444 111.145C6.52985 111.308 6.31509 111.39 6.06016 111.39H1.56256C1.30609 111.39 1.09751 111.308 0.935278 111.145Z" fill="#E8272D"/>
<path d="M28.8974 109.329C27.014 107.721 26.0143 105.357 25.8985 102.235C25.8753 101.559 25.8629 100.558 25.8629 99.2289C25.8629 97.9002 25.8737 96.8642 25.8985 96.189C26.0143 93.1135 27.031 90.7442 28.9499 89.0779C30.8673 87.4132 33.4305 86.5801 36.638 86.5801C39.8455 86.5801 42.4133 87.4132 44.3431 89.0779C46.2728 90.7442 47.2833 93.1135 47.376 96.189C47.4223 97.5409 47.4455 98.5537 47.4455 99.2289C47.4455 99.904 47.4223 100.883 47.376 102.235C47.2601 105.357 46.2605 107.721 44.3771 109.329C42.4937 110.936 39.915 111.74 36.6364 111.74C33.3579 111.74 30.7792 110.936 28.8958 109.329H28.8974ZM39.6879 105.555C40.4434 104.787 40.8436 103.61 40.8915 102.026C40.9378 100.675 40.961 99.7198 40.961 99.1607C40.961 98.5552 40.9378 97.5998 40.8915 96.2958C40.8451 94.7117 40.4388 93.5347 39.6709 92.7666C38.9046 91.9986 37.8926 91.613 36.638 91.613C35.3834 91.613 34.3776 91.997 33.6221 92.7666C32.8666 93.5347 32.454 94.7117 32.3845 96.2958C32.3613 96.9478 32.349 97.9033 32.349 99.1607C32.349 100.418 32.3598 101.35 32.3845 102.026C32.454 103.61 32.8604 104.787 33.6051 105.555C34.3482 106.323 35.3602 106.708 36.638 106.708C37.9157 106.708 38.9324 106.324 39.6894 105.555H39.6879Z" fill="#E8272D"/>
<path d="M51.7515 111.128C51.5769 110.953 51.4904 110.75 51.4904 110.517V87.8021C51.4904 87.5466 51.5769 87.336 51.7515 87.1734C51.9261 87.0108 52.1285 86.9287 52.3618 86.9287H56.127C56.6848 86.9287 57.0911 87.1858 57.3476 87.6968L63.4845 98.7041L69.6213 87.6968C69.8763 87.1842 70.2842 86.9287 70.8419 86.9287H74.5732C74.8281 86.9287 75.0444 87.0108 75.2174 87.1734C75.392 87.336 75.4786 87.5466 75.4786 87.8021V110.517C75.4786 110.774 75.392 110.983 75.2174 111.145C75.0429 111.308 74.8281 111.39 74.5732 111.39H70.4248C70.1683 111.39 69.9535 111.308 69.7805 111.145C69.6059 110.983 69.5194 110.774 69.5194 110.517V97.4126L65.6151 104.716C65.3122 105.251 64.9059 105.519 64.3945 105.519H62.5822C62.2793 105.519 62.0352 105.45 61.8498 105.31C61.6629 105.171 61.5006 104.973 61.3616 104.716L57.4217 97.4126V110.517C57.4217 110.75 57.3399 110.953 57.1776 111.128C57.0154 111.303 56.8053 111.39 56.5503 111.39H52.3664C52.1346 111.39 51.9307 111.303 51.7561 111.128H51.7515Z" fill="#E8272D"/>
<path d="M80.6189 111.128C80.4443 110.953 80.3578 110.75 80.3578 110.517V87.8021C80.3578 87.5466 80.4443 87.336 80.6189 87.1734C80.7935 87.0108 80.9959 86.9287 81.2292 86.9287H97.5108C97.7657 86.9287 97.9758 87.0108 98.1381 87.1734C98.3003 87.336 98.3822 87.5466 98.3822 87.8021V91.0866C98.3822 91.3205 98.3003 91.5233 98.1381 91.6983C97.9758 91.8733 97.7657 91.96 97.5108 91.96H86.3881V96.677H96.7429C96.9978 96.677 97.2079 96.7637 97.3702 96.9387C97.5324 97.1137 97.6143 97.329 97.6143 97.5845V100.624C97.6143 100.857 97.5324 101.061 97.3702 101.236C97.2079 101.411 96.9978 101.498 96.7429 101.498H86.3881V106.356H97.7889C98.0438 106.356 98.2539 106.438 98.4162 106.6C98.5784 106.763 98.6603 106.974 98.6603 107.229V110.514C98.6603 110.747 98.5784 110.95 98.4162 111.125C98.2539 111.3 98.0438 111.387 97.7889 111.387H81.2276C80.9959 111.387 80.7919 111.3 80.6174 111.125L80.6189 111.128Z" fill="#E8272D"/>
<path d="M1.63516 126.546C1.58726 126.498 1.56409 126.439 1.56409 126.371V119.686C1.56409 119.61 1.58572 119.549 1.63052 119.501C1.67533 119.453 1.73404 119.43 1.80975 119.43H6.25636C6.33206 119.43 6.39232 119.455 6.44022 119.501C6.48811 119.549 6.51129 119.611 6.51129 119.686V120.404C6.51129 120.48 6.48657 120.539 6.44022 120.584C6.39232 120.629 6.33052 120.65 6.25636 120.65H2.96698V122.602H6.05087C6.12657 122.602 6.18683 122.626 6.23473 122.673C6.28262 122.721 6.3058 122.783 6.3058 122.857V123.576C6.3058 123.652 6.28108 123.71 6.23473 123.755C6.18683 123.8 6.12503 123.822 6.05087 123.822H2.96698V126.368C2.96698 126.444 2.94226 126.503 2.89591 126.547C2.84801 126.592 2.78621 126.614 2.71205 126.614H1.81129C1.74331 126.614 1.6846 126.591 1.6367 126.543L1.63516 126.546Z" fill="#E8272D"/>
<path d="M13.5505 126.012C13.0375 125.539 12.7826 124.824 12.7826 123.865V119.686C12.7826 119.61 12.8042 119.549 12.849 119.501C12.8938 119.453 12.9525 119.43 13.0283 119.43H13.9599C14.0356 119.43 14.0943 119.455 14.1391 119.501C14.1839 119.549 14.2056 119.611 14.2056 119.686V123.865C14.2056 124.414 14.3354 124.825 14.5949 125.103C14.8545 125.38 15.2237 125.519 15.7012 125.519C16.1786 125.519 16.5463 125.38 16.8028 125.103C17.0592 124.825 17.1875 124.414 17.1875 123.865V119.686C17.1875 119.61 17.2107 119.549 17.2586 119.501C17.3065 119.453 17.3683 119.43 17.4424 119.43H18.3648C18.4405 119.43 18.4992 119.455 18.544 119.501C18.5888 119.549 18.6105 119.611 18.6105 119.686V123.865C18.6105 124.824 18.3555 125.539 17.8472 126.012C17.3389 126.484 16.6235 126.721 15.7012 126.721C14.7788 126.721 14.0619 126.484 13.5505 126.012Z" fill="#E8272D"/>
<path d="M25.3406 126.546C25.2927 126.498 25.2695 126.439 25.2695 126.371V119.686C25.2695 119.61 25.2912 119.549 25.336 119.501C25.3808 119.453 25.4395 119.43 25.5152 119.43H28.168C29.0008 119.43 29.6543 119.625 30.1302 120.016C30.6061 120.406 30.8425 120.96 30.8425 121.679C30.8425 122.179 30.7204 122.597 30.4794 122.936C30.2368 123.275 29.9 123.52 29.4705 123.67L30.9661 126.289C30.9862 126.331 30.997 126.368 30.997 126.402C30.997 126.464 30.9753 126.515 30.9305 126.557C30.8857 126.597 30.8363 126.619 30.7822 126.619H29.8506C29.7409 126.619 29.6574 126.595 29.6003 126.547C29.5416 126.499 29.489 126.431 29.4411 126.341L28.1201 123.909H26.6956V126.372C26.6956 126.441 26.674 126.499 26.6292 126.547C26.5844 126.595 26.5256 126.619 26.4499 126.619H25.5183C25.4503 126.619 25.3916 126.595 25.3437 126.547L25.3406 126.546ZM28.1387 122.747C28.5481 122.747 28.8571 122.654 29.0657 122.47C29.2743 122.286 29.3778 122.018 29.3778 121.669C29.3778 121.321 29.2743 121.05 29.0657 120.858C28.8571 120.666 28.5481 120.57 28.1387 120.57H26.6941V122.747H28.1387Z" fill="#E8272D"/>
<path d="M37.3579 126.546C37.31 126.498 37.2869 126.439 37.2869 126.371V119.686C37.2869 119.61 37.3085 119.549 37.3533 119.501C37.3981 119.453 37.4568 119.43 37.5325 119.43H38.322C38.4039 119.43 38.4657 119.446 38.5059 119.477C38.5461 119.508 38.5847 119.546 38.6187 119.594L41.5697 124.195V119.687C41.5697 119.611 41.5913 119.551 41.6361 119.503C41.6809 119.455 41.7397 119.432 41.8154 119.432H42.6759C42.7517 119.432 42.8119 119.456 42.8598 119.503C42.9077 119.551 42.9309 119.613 42.9309 119.687V126.362C42.9309 126.437 42.9062 126.498 42.8598 126.546C42.8119 126.594 42.7532 126.617 42.6852 126.617H41.8864C41.7706 126.617 41.6717 126.563 41.5898 126.453L38.6496 121.956V126.371C38.6496 126.447 38.6249 126.506 38.5785 126.551C38.5306 126.595 38.4688 126.617 38.3947 126.617H37.5341C37.4661 126.617 37.4074 126.594 37.3595 126.546H37.3579Z" fill="#E8272D"/>
<path d="M49.7228 126.546C49.6749 126.498 49.6517 126.439 49.6517 126.371V119.676C49.6517 119.601 49.6749 119.542 49.7228 119.497C49.7707 119.452 49.8294 119.43 49.8974 119.43H50.8599C50.9357 119.43 50.9944 119.452 51.0392 119.497C51.084 119.542 51.1056 119.601 51.1056 119.676V126.371C51.1056 126.439 51.084 126.498 51.0392 126.546C50.9944 126.594 50.9357 126.617 50.8599 126.617H49.8974C49.8294 126.617 49.7707 126.594 49.7228 126.546Z" fill="#E8272D"/>
<path d="M59.4859 126.546C59.438 126.498 59.4149 126.439 59.4149 126.371V120.692H57.5191C57.4511 120.692 57.3924 120.669 57.3445 120.621C57.2966 120.573 57.2734 120.514 57.2734 120.446V119.686C57.2734 119.61 57.2951 119.549 57.3399 119.501C57.3847 119.453 57.4434 119.43 57.5191 119.43H62.7444C62.8201 119.43 62.8804 119.455 62.9283 119.501C62.9762 119.549 62.9993 119.611 62.9993 119.686V120.446C62.9993 120.514 62.9746 120.573 62.9283 120.621C62.8819 120.669 62.8186 120.692 62.7444 120.692H60.8595V126.371C60.8595 126.439 60.8347 126.498 60.7884 126.546C60.7405 126.594 60.6787 126.617 60.6045 126.617H59.6621C59.5941 126.617 59.5354 126.594 59.4875 126.546H59.4859Z" fill="#E8272D"/>
<path d="M69.8638 126.012C69.3509 125.539 69.0959 124.824 69.0959 123.865V119.686C69.0959 119.61 69.1176 119.549 69.1624 119.501C69.2072 119.453 69.2659 119.43 69.3416 119.43H70.2733C70.349 119.43 70.4077 119.455 70.4525 119.501C70.4973 119.549 70.5189 119.611 70.5189 119.686V123.865C70.5189 124.414 70.6487 124.825 70.9083 125.103C71.1678 125.38 71.5371 125.519 72.0145 125.519C72.4919 125.519 72.8597 125.38 73.1161 125.103C73.3726 124.825 73.5008 124.414 73.5008 123.865V119.686C73.5008 119.61 73.524 119.549 73.5719 119.501C73.6198 119.453 73.6816 119.43 73.7558 119.43H74.6782C74.7539 119.43 74.8126 119.455 74.8574 119.501C74.9022 119.549 74.9238 119.611 74.9238 119.686V123.865C74.9238 124.824 74.6689 125.539 74.1606 126.012C73.6523 126.484 72.9369 126.721 72.0145 126.721C71.0921 126.721 70.3752 126.484 69.8638 126.012Z" fill="#E8272D"/>
<path d="M81.6555 126.546C81.6077 126.498 81.5845 126.439 81.5845 126.371V119.686C81.5845 119.61 81.6061 119.549 81.6509 119.501C81.6957 119.453 81.7544 119.43 81.8301 119.43H84.483C85.3157 119.43 85.9693 119.625 86.4452 120.016C86.921 120.406 87.1574 120.96 87.1574 121.679C87.1574 122.179 87.0354 122.597 86.7943 122.936C86.5518 123.275 86.2149 123.52 85.7854 123.67L87.281 126.289C87.3011 126.331 87.3119 126.368 87.3119 126.402C87.3119 126.464 87.2903 126.515 87.2455 126.557C87.2007 126.597 87.1512 126.619 87.0972 126.619H86.1655C86.0558 126.619 85.9724 126.595 85.9152 126.547C85.8565 126.499 85.804 126.431 85.7561 126.341L84.4351 123.909H83.0105V126.372C83.0105 126.441 82.9889 126.499 82.9441 126.547C82.8993 126.595 82.8406 126.619 82.7649 126.619H81.8332C81.7652 126.619 81.7065 126.595 81.6586 126.547L81.6555 126.546ZM84.4521 122.747C84.8615 122.747 85.1705 122.654 85.3791 122.47C85.5877 122.286 85.6912 122.018 85.6912 121.669C85.6912 121.321 85.5877 121.05 85.3791 120.858C85.1705 120.666 84.8615 120.57 84.4521 120.57H83.0075V122.747H84.4521Z" fill="#E8272D"/>
<path d="M93.6713 126.546C93.6234 126.498 93.6002 126.439 93.6002 126.371V119.686C93.6002 119.61 93.6218 119.549 93.6667 119.501C93.7115 119.453 93.7702 119.43 93.8459 119.43H98.3527C98.4284 119.43 98.4887 119.455 98.5366 119.501C98.5845 119.549 98.6077 119.611 98.6077 119.686V120.364C98.6077 120.44 98.5829 120.499 98.5366 120.544C98.4887 120.589 98.4269 120.61 98.3527 120.61H94.9815V122.428H98.1272C98.2029 122.428 98.2631 122.45 98.311 122.495C98.3589 122.54 98.3821 122.599 98.3821 122.674V123.311C98.3821 123.387 98.3574 123.446 98.311 123.491C98.2631 123.535 98.2013 123.557 98.1272 123.557H94.9815V125.436H98.4346C98.5103 125.436 98.5706 125.46 98.6185 125.507C98.6664 125.555 98.6896 125.617 98.6896 125.691V126.369C98.6896 126.445 98.6648 126.504 98.6185 126.549C98.5706 126.594 98.5088 126.616 98.4346 126.616H93.8443C93.7763 126.616 93.7176 126.592 93.6697 126.544L93.6713 126.546Z" fill="#E8272D"/>
<path d="M49.2222 0.720703C38.0068 0.720703 28.9143 9.83408 28.9143 21.0752V53.4529L54.2869 30.7337C54.5959 30.458 55.0408 30.3976 55.4101 30.585C56.059 30.9133 56.1595 31.8007 55.6002 32.2652L28.9159 54.3913V75.6331H69.5317V21.0752C69.5302 9.83408 60.4392 0.720703 49.2222 0.720703ZM63.4845 30.8297C62.5126 29.645 62.1264 29.1727 61.1545 27.9896C59.8135 28.5177 58.7489 29.7054 58.3704 31.0991C56.9969 30.8003 55.7686 29.8866 55.0872 28.6555C57.5515 28.0376 59.0749 26.3667 59.0749 26.3667C59.0749 26.3667 55.5986 24.1445 54.0273 23.028C56.9011 22.5572 59.8444 22.7771 61.7278 24.3102C61.703 23.4879 62.3427 23.1968 63.0905 23.2262C63.778 23.2541 64.0391 23.6846 64.3682 24.2901C63.8136 24.3241 63.2975 24.7144 63.1121 25.2393C64.2369 26.8514 64.3821 28.7778 63.4845 30.8312V30.8297Z" fill="#E8272D"/>
<path d="M14.7433 66.1419L23.6983 58.1233V49.1834C23.6983 42.8606 18.5843 37.7363 12.2759 37.7363C5.9675 37.7363 0.85498 42.8621 0.85498 49.185V75.6331H23.6983V58.718L14.7433 66.1434V66.1419Z" fill="#E8272D"/>
</g>
<defs>
<clipPath id="clip0_9_62">
<rect width="98" height="126" fill="white" transform="translate(0.691162 0.720703)"/>
</clipPath>
</defs>
</svg>
