<svg width="154" height="102" viewBox="0 0 154 102" fill="none" xmlns="http://www.w3.org/2000/svg">
<g clip-path="url(#clip0_9_29)">
<path d="M115.542 3.42881C115.542 1.67156 114.116 0.249023 112.36 0.249023C110.604 0.249023 109.178 1.67409 109.178 3.42881C109.178 21.0647 94.8208 35.4092 77.173 35.4092C59.5251 35.4092 45.1682 21.0622 45.1682 3.42881C45.1682 1.67156 43.7422 0.249023 41.9863 0.249023C40.2304 0.249023 38.8043 1.67409 38.8043 3.42881C38.8043 23.499 54.3182 40.0065 73.991 41.6293V54.0214H56.2644C54.506 54.0214 53.0825 55.4464 53.0825 57.2011C53.0825 58.9559 54.5085 60.3809 56.2644 60.3809H98.084C99.8424 60.3809 101.266 58.9559 101.266 57.2011C101.266 55.4464 99.8399 54.0214 98.084 54.0214H80.3574V41.6293C100.028 40.0065 115.544 23.499 115.544 3.42881H115.542Z" fill="#28245F"/>
<path d="M2.37935 85.7961C1.41766 84.9618 0.935547 83.7016 0.935547 82.0204V74.6136C0.935547 74.4792 0.981221 74.3701 1.07257 74.2865C1.16392 74.2028 1.27049 74.1597 1.38975 74.1597H3.73434C3.86883 74.1597 3.98047 74.2028 4.07182 74.2865C4.16317 74.3701 4.20884 74.4792 4.20884 74.6136V82.0026C4.20884 82.7887 4.39408 83.3795 4.76201 83.7726C5.13247 84.1656 5.66787 84.3634 6.37074 84.3634C7.07361 84.3634 7.59379 84.1631 7.96933 83.7649C8.34487 83.3668 8.53264 82.7786 8.53264 82.0052V74.6161C8.53264 74.4817 8.57832 74.3727 8.66966 74.289C8.76101 74.2053 8.86758 74.1622 8.98684 74.1622H11.3492C11.4811 74.1622 11.5903 74.2053 11.6765 74.289C11.7603 74.3727 11.8034 74.4817 11.8034 74.6161V82.0229C11.8034 83.7041 11.3213 84.9643 10.3596 85.7986C9.39791 86.6328 8.07336 87.0512 6.39104 87.0512C4.70872 87.0512 3.34865 86.6328 2.38443 85.7986L2.37935 85.7961Z" fill="#28245F"/>
<path d="M14.1429 86.7422C14.0591 86.6586 14.016 86.5495 14.016 86.4151V77.8825C14.016 77.7506 14.0591 77.6416 14.1429 77.5554C14.2266 77.4691 14.3357 77.4286 14.4702 77.4286H16.5585C16.693 77.4286 16.8046 77.4717 16.896 77.5554C16.9873 77.639 17.033 77.7481 17.033 77.8825V78.5722C17.3603 78.1715 17.7816 77.852 18.2967 77.6111C18.8118 77.3702 19.3954 77.2485 20.05 77.2485C21.1157 77.2485 21.981 77.6086 22.6484 78.3288C23.3132 79.0489 23.6481 80.0556 23.6481 81.3513V86.4151C23.6481 86.5369 23.605 86.6434 23.5212 86.7321C23.4375 86.8234 23.3284 86.869 23.1939 86.869H20.9051C20.7833 86.869 20.6793 86.8234 20.588 86.7321C20.4966 86.6408 20.4509 86.5343 20.4509 86.4151V81.4604C20.4509 80.8924 20.3114 80.4537 20.0323 80.1443C19.7531 79.835 19.3548 79.6803 18.8321 79.6803C18.3093 79.6803 17.9236 79.835 17.6344 80.1443C17.3426 80.4537 17.1979 80.8924 17.1979 81.4604V86.4151C17.1979 86.5369 17.1548 86.6434 17.0711 86.7321C16.9873 86.8234 16.8782 86.869 16.7437 86.869H14.4727C14.3382 86.869 14.2291 86.8259 14.1454 86.7422H14.1429Z" fill="#28245F"/>
<path d="M25.805 75.9399C25.7212 75.8562 25.6781 75.7472 25.6781 75.6128V73.9798C25.6781 73.8454 25.7212 73.7363 25.805 73.6527C25.8887 73.569 25.9978 73.5259 26.1323 73.5259H28.312C28.4439 73.5259 28.553 73.569 28.6393 73.6527C28.723 73.7363 28.7662 73.8454 28.7662 73.9798V75.6128C28.7662 75.7472 28.723 75.8562 28.6393 75.9399C28.5556 76.0236 28.4464 76.0667 28.312 76.0667H26.1323C25.9978 76.0667 25.8887 76.0236 25.805 75.9399ZM25.8227 86.742C25.739 86.6583 25.6959 86.5493 25.6959 86.4149V77.8822C25.6959 77.7504 25.739 77.6413 25.8227 77.5551C25.9065 77.4689 26.0156 77.4283 26.1501 77.4283H28.2942C28.4287 77.4283 28.5353 77.4714 28.6215 77.5551C28.7053 77.6388 28.7484 77.7478 28.7484 77.8822V86.4149C28.7484 86.5366 28.7053 86.6431 28.6215 86.7319C28.5378 86.8232 28.4287 86.8688 28.2942 86.8688H26.1501C26.0156 86.8688 25.9065 86.8257 25.8227 86.742Z" fill="#28245F"/>
<path d="M37.2235 90.1908C37.1321 90.1071 37.0865 89.9981 37.0865 89.8637V85.8345C36.5054 86.6459 35.6198 87.0516 34.4348 87.0516C33.2499 87.0516 32.3338 86.6738 31.6563 85.9181C30.9789 85.1625 30.6135 84.1305 30.5652 82.822L30.5475 82.1501L30.5652 81.4781C30.6261 80.1342 30.989 79.0945 31.6563 78.3566C32.3212 77.6187 33.2499 77.2485 34.4348 77.2485C35.6198 77.2485 36.5967 77.6771 37.2514 78.5367V77.8825C37.2514 77.7506 37.2971 77.6416 37.3884 77.5554C37.4798 77.4717 37.5863 77.4286 37.7056 77.4286H39.7584C39.8929 77.4286 39.9994 77.4717 40.0857 77.5554C40.1695 77.639 40.2126 77.7481 40.2126 77.8825V89.8637C40.2126 89.9956 40.1695 90.1046 40.0857 90.1908C40.002 90.2745 39.8929 90.3176 39.7584 90.3176H37.5432C37.4214 90.3176 37.3174 90.2745 37.226 90.1908H37.2235ZM36.6323 84.1279C36.9114 83.8008 37.0611 83.39 37.0865 82.893C37.1118 82.5786 37.122 82.3479 37.122 82.2033C37.122 82.0715 37.1093 81.8458 37.0865 81.5314C37.0611 80.9989 36.9165 80.5576 36.65 80.2052C36.3836 79.8552 35.9725 79.6777 35.4143 79.6777C34.8561 79.6777 34.4374 79.8476 34.1887 80.1849C33.94 80.5247 33.7979 80.9887 33.7624 81.5821C33.7497 81.7038 33.7447 81.8914 33.7447 82.145C33.7447 82.3986 33.7497 82.5862 33.7624 82.7079C33.7979 83.3013 33.94 83.7679 34.1887 84.1051C34.4374 84.4449 34.8459 84.6122 35.4143 84.6122C35.9472 84.6122 36.3531 84.45 36.6323 84.1229V84.1279Z" fill="#28245F"/>
<path d="M43.2448 85.9685C42.5901 85.2484 42.2628 84.2417 42.2628 82.9459V77.8821C42.2628 77.7503 42.306 77.6412 42.3897 77.555C42.4734 77.4713 42.5825 77.4282 42.717 77.4282H44.988C45.12 77.4282 45.2342 77.4713 45.323 77.555C45.4143 77.6387 45.46 77.7477 45.46 77.8821V82.8369C45.46 84.0236 45.9878 84.617 47.0408 84.617C47.5483 84.617 47.9492 84.4598 48.241 84.1453C48.5328 83.8309 48.6775 83.3948 48.6775 82.8369V77.8821C48.6775 77.7503 48.7231 77.6412 48.8145 77.555C48.9058 77.4713 49.0124 77.4282 49.1317 77.4282H51.4027C51.5372 77.4282 51.6463 77.4713 51.73 77.555C51.8137 77.6387 51.8569 77.7477 51.8569 77.8821V86.4148C51.8569 86.5365 51.8137 86.643 51.73 86.7318C51.6463 86.823 51.5372 86.8687 51.4027 86.8687H49.2966C49.1748 86.8687 49.0708 86.823 48.9794 86.7318C48.8881 86.6405 48.8424 86.534 48.8424 86.4148V85.7251C48.2131 86.61 47.2083 87.0513 45.8279 87.0513C44.7622 87.0513 43.902 86.6912 43.2473 85.971L43.2448 85.9685Z" fill="#28245F"/>
<path d="M54.9271 85.8696C54.0923 85.0835 53.6559 83.9399 53.6204 82.4387V81.8023C53.6686 80.3747 54.1126 79.2564 54.9551 78.4526C55.7975 77.6488 56.9266 77.2456 58.3425 77.2456C59.3727 77.2456 60.2405 77.4535 60.9485 77.8719C61.6564 78.2903 62.1893 78.8609 62.5471 79.5886C62.9049 80.3138 63.0825 81.1506 63.0825 82.0939V82.53C63.0825 82.6517 63.0393 82.7582 62.9556 82.847C62.8719 82.9383 62.7628 82.9839 62.6283 82.9839H56.815V83.1107C56.8378 83.6787 56.9774 84.1402 57.2337 84.4901C57.4874 84.8401 57.8579 85.0176 58.3425 85.0176C58.6445 85.0176 58.8932 84.9542 59.0885 84.8274C59.2814 84.7006 59.459 84.5459 59.6163 84.3634C59.7254 84.2315 59.8143 84.1478 59.8802 84.1174C59.9462 84.087 60.0528 84.0717 60.1974 84.0717H62.4506C62.5598 84.0717 62.6536 84.1047 62.7323 84.1706C62.811 84.2366 62.8516 84.3253 62.8516 84.4344C62.8516 84.7488 62.6714 85.1114 62.3162 85.5247C61.9584 85.9355 61.4407 86.293 60.7633 86.5948C60.0858 86.8965 59.2865 87.0487 58.3654 87.0487C56.9114 87.0487 55.767 86.6556 54.9322 85.8696H54.9271ZM59.8853 81.1861V81.1506C59.8853 80.5572 59.7483 80.0881 59.4768 79.7433C59.2053 79.3984 58.8247 79.226 58.3425 79.226C57.8604 79.226 57.4976 79.3984 57.2261 79.7433C56.9546 80.0881 56.8175 80.5572 56.8175 81.1506V81.1861H59.8878H59.8853Z" fill="#28245F"/>
<path d="M68.9973 86.7317C68.9059 86.6404 68.8602 86.5339 68.8602 86.4148V74.6136C68.8602 74.4792 68.9059 74.3701 68.9973 74.2865C69.0886 74.2028 69.1952 74.1597 69.3144 74.1597H77.6702C77.8022 74.1597 77.9113 74.2028 77.9976 74.2865C78.0813 74.3701 78.1244 74.4792 78.1244 74.6136V76.4469C78.1244 76.5686 78.0813 76.6751 77.9976 76.7638C77.9138 76.8551 77.8047 76.9008 77.6702 76.9008H72.0574V79.5683H77.3074C77.4393 79.5683 77.5484 79.614 77.6347 79.7053C77.7184 79.7966 77.7616 79.9081 77.7616 80.04V81.8556C77.7616 81.9773 77.7184 82.0812 77.6347 82.1725C77.551 82.2638 77.4419 82.3094 77.3074 82.3094H72.0574V86.4122C72.0574 86.5466 72.0143 86.6557 71.9305 86.7393C71.8468 86.823 71.7377 86.8661 71.6032 86.8661H69.3144C69.1926 86.8661 69.0861 86.8205 68.9973 86.7292V86.7317Z" fill="#28245F"/>
<path d="M80.6873 85.9685C80.0327 85.2484 79.7053 84.2417 79.7053 82.9459V77.8821C79.7053 77.7503 79.7485 77.6412 79.8322 77.555C79.9159 77.4713 80.025 77.4282 80.1595 77.4282H82.4305C82.5625 77.4282 82.6767 77.4713 82.7655 77.555C82.8568 77.6387 82.9025 77.7477 82.9025 77.8821V82.8369C82.9025 84.0236 83.4303 84.617 84.4833 84.617C84.9908 84.617 85.3917 84.4598 85.6835 84.1453C85.9753 83.8309 86.12 83.3948 86.12 82.8369V77.8821C86.12 77.7503 86.1656 77.6412 86.257 77.555C86.3483 77.4713 86.4549 77.4282 86.5742 77.4282H88.8452C88.9797 77.4282 89.0888 77.4713 89.1725 77.555C89.2562 77.6387 89.2994 77.7477 89.2994 77.8821V86.4148C89.2994 86.5365 89.2562 86.643 89.1725 86.7318C89.0888 86.823 88.9797 86.8687 88.8452 86.8687H86.7391C86.6173 86.8687 86.5133 86.823 86.4219 86.7318C86.3306 86.6405 86.2849 86.534 86.2849 86.4148V85.7251C85.6556 86.61 84.6508 87.0513 83.2704 87.0513C82.2047 87.0513 81.3445 86.6912 80.6899 85.971L80.6873 85.9685Z" fill="#28245F"/>
<path d="M91.5678 86.7419C91.4841 86.6582 91.4409 86.5492 91.4409 86.4148V77.8821C91.4409 77.7503 91.4841 77.6412 91.5678 77.555C91.6515 77.4688 91.7606 77.4282 91.8951 77.4282H93.9834C94.1179 77.4282 94.2296 77.4739 94.3209 77.5652C94.4123 77.6564 94.4579 77.7629 94.4579 77.8821V78.6073C95.1227 77.8213 96.021 77.4282 97.1476 77.4282H97.9469C98.0789 77.4282 98.188 77.4713 98.2742 77.555C98.358 77.6387 98.4011 77.7477 98.4011 77.8821V79.7509C98.4011 79.8727 98.358 79.9792 98.2742 80.0679C98.1905 80.1592 98.0814 80.2048 97.9469 80.2048H96.1834C95.6861 80.2048 95.3029 80.3418 95.0289 80.6131C94.7574 80.8844 94.6203 81.2698 94.6203 81.7668V86.4148C94.6203 86.5492 94.5747 86.6582 94.4833 86.7419C94.392 86.8256 94.2803 86.8687 94.1484 86.8687H91.8951C91.7606 86.8687 91.6515 86.8256 91.5678 86.7419Z" fill="#28245F"/>
<path d="M99.8171 86.7422C99.7333 86.6586 99.6902 86.5495 99.6902 86.4151V77.8825C99.6902 77.7506 99.7333 77.6416 99.8171 77.5554C99.9008 77.4691 100.01 77.4286 100.144 77.4286H102.233C102.367 77.4286 102.479 77.4717 102.57 77.5554C102.662 77.639 102.707 77.7481 102.707 77.8825V78.5722C103.035 78.1715 103.456 77.852 103.971 77.6111C104.486 77.3702 105.07 77.2485 105.724 77.2485C106.79 77.2485 107.655 77.6086 108.323 78.3288C108.987 79.0489 109.322 80.0556 109.322 81.3513V86.4151C109.322 86.5369 109.279 86.6434 109.195 86.7321C109.112 86.8234 109.003 86.869 108.868 86.869H106.579C106.458 86.869 106.354 86.8234 106.262 86.7321C106.171 86.6408 106.125 86.5343 106.125 86.4151V81.4604C106.125 80.8924 105.986 80.4537 105.706 80.1443C105.427 79.835 105.029 79.6803 104.506 79.6803C103.984 79.6803 103.598 79.835 103.309 80.1443C103.017 80.4537 102.872 80.8924 102.872 81.4604V86.4151C102.872 86.5369 102.829 86.6434 102.745 86.7321C102.662 86.8234 102.552 86.869 102.418 86.869H100.147C100.012 86.869 99.9033 86.8259 99.8196 86.7422H99.8171Z" fill="#28245F"/>
<path d="M111.479 75.9399C111.395 75.8562 111.352 75.7472 111.352 75.6128V73.9798C111.352 73.8454 111.395 73.7363 111.479 73.6527C111.563 73.569 111.672 73.5259 111.806 73.5259H113.986C114.118 73.5259 114.227 73.569 114.313 73.6527C114.397 73.7363 114.44 73.8454 114.44 73.9798V75.6128C114.44 75.7472 114.397 75.8562 114.313 75.9399C114.23 76.0236 114.121 76.0667 113.986 76.0667H111.806C111.672 76.0667 111.563 76.0236 111.479 75.9399ZM111.497 86.742C111.413 86.6583 111.37 86.5493 111.37 86.4149V77.8822C111.37 77.7504 111.413 77.6413 111.497 77.5551C111.581 77.4689 111.69 77.4283 111.824 77.4283H113.968C114.103 77.4283 114.209 77.4714 114.296 77.5551C114.379 77.6388 114.423 77.7478 114.423 77.8822V86.4149C114.423 86.5366 114.379 86.6431 114.296 86.7319C114.212 86.8232 114.103 86.8688 113.968 86.8688H111.824C111.69 86.8688 111.581 86.8257 111.497 86.742Z" fill="#28245F"/>
<path d="M117.637 83.2907V79.8041H116.222C116.087 79.8041 115.975 79.761 115.884 79.6773C115.793 79.5937 115.747 79.4846 115.747 79.3502V77.8795C115.747 77.7477 115.793 77.6386 115.884 77.5524C115.975 77.4687 116.087 77.4256 116.222 77.4256H117.637V74.4309C117.637 74.2991 117.683 74.1901 117.774 74.1038C117.866 74.0202 117.972 73.9771 118.092 73.9771H120.198C120.33 73.9771 120.439 74.0202 120.525 74.1038C120.609 74.1875 120.652 74.2965 120.652 74.4309V77.4256H122.923C123.055 77.4256 123.169 77.4687 123.258 77.5524C123.349 77.6361 123.395 77.7451 123.395 77.8795V79.3502C123.395 79.4846 123.349 79.5937 123.258 79.6773C123.167 79.761 123.055 79.8041 122.923 79.8041H120.652V83.0346C120.652 83.9297 120.997 84.3785 121.687 84.3785H123.085C123.217 84.3785 123.326 84.4217 123.413 84.5053C123.496 84.589 123.54 84.698 123.54 84.8324V86.4122C123.54 86.5339 123.496 86.6404 123.413 86.7291C123.329 86.8204 123.22 86.8661 123.085 86.8661H121.395C118.888 86.8661 117.635 85.6743 117.635 83.2907H117.637Z" fill="#28245F"/>
<path d="M125.94 85.9685C125.285 85.2484 124.958 84.2417 124.958 82.9459V77.8821C124.958 77.7503 125.001 77.6412 125.085 77.555C125.169 77.4713 125.278 77.4282 125.412 77.4282H127.683C127.815 77.4282 127.929 77.4713 128.018 77.555C128.11 77.6387 128.155 77.7477 128.155 77.8821V82.8369C128.155 84.0236 128.683 84.617 129.736 84.617C130.243 84.617 130.644 84.4598 130.936 84.1453C131.228 83.8309 131.373 83.3948 131.373 82.8369V77.8821C131.373 77.7503 131.418 77.6412 131.51 77.555C131.601 77.4713 131.708 77.4282 131.827 77.4282H134.098C134.232 77.4282 134.341 77.4713 134.425 77.555C134.509 77.6387 134.552 77.7477 134.552 77.8821V86.4148C134.552 86.5365 134.509 86.643 134.425 86.7318C134.341 86.823 134.232 86.8687 134.098 86.8687H131.992C131.87 86.8687 131.766 86.823 131.675 86.7318C131.583 86.6405 131.538 86.534 131.538 86.4148V85.7251C130.908 86.61 129.903 87.0513 128.523 87.0513C127.457 87.0513 126.597 86.6912 125.943 85.971L125.94 85.9685Z" fill="#28245F"/>
<path d="M136.82 86.7419C136.737 86.6582 136.694 86.5492 136.694 86.4148V77.8821C136.694 77.7503 136.737 77.6412 136.82 77.555C136.904 77.4688 137.013 77.4282 137.148 77.4282H139.236C139.371 77.4282 139.482 77.4739 139.574 77.5652C139.665 77.6564 139.711 77.7629 139.711 77.8821V78.6073C140.375 77.8213 141.274 77.4282 142.4 77.4282H143.2C143.332 77.4282 143.441 77.4713 143.527 77.555C143.611 77.6387 143.654 77.7477 143.654 77.8821V79.7509C143.654 79.8727 143.611 79.9792 143.527 80.0679C143.443 80.1592 143.334 80.2048 143.2 80.2048H141.436C140.939 80.2048 140.556 80.3418 140.282 80.6131C140.01 80.8844 139.873 81.2698 139.873 81.7668V86.4148C139.873 86.5492 139.827 86.6582 139.736 86.7419C139.645 86.8256 139.533 86.8687 139.401 86.8687H137.148C137.013 86.8687 136.904 86.8256 136.82 86.7419Z" fill="#28245F"/>
<path d="M145.778 85.8696C144.943 85.0835 144.506 83.9399 144.471 82.4387V81.8023C144.519 80.3747 144.963 79.2564 145.806 78.4526C146.648 77.6488 147.777 77.2456 149.193 77.2456C150.223 77.2456 151.091 77.4535 151.799 77.8719C152.507 78.2903 153.04 78.8609 153.398 79.5886C153.755 80.3138 153.933 81.1506 153.933 82.0939V82.53C153.933 82.6517 153.89 82.7582 153.806 82.847C153.722 82.9383 153.613 82.9839 153.479 82.9839H147.666V83.1107C147.688 83.6787 147.828 84.1402 148.084 84.4901C148.338 84.8401 148.708 85.0176 149.193 85.0176C149.495 85.0176 149.744 84.9542 149.939 84.8274C150.132 84.7006 150.31 84.5459 150.467 84.3634C150.576 84.2315 150.665 84.1478 150.731 84.1174C150.797 84.087 150.903 84.0717 151.048 84.0717H153.301C153.41 84.0717 153.504 84.1047 153.583 84.1706C153.662 84.2366 153.702 84.3253 153.702 84.4344C153.702 84.7488 153.522 85.1114 153.167 85.5247C152.809 85.9355 152.291 86.293 151.614 86.5948C150.936 86.8965 150.137 87.0487 149.216 87.0487C147.762 87.0487 146.618 86.6556 145.783 85.8696H145.778ZM150.738 81.1861V81.1506C150.738 80.5572 150.601 80.0881 150.33 79.7433C150.058 79.3984 149.678 79.226 149.196 79.226C148.714 79.226 148.351 79.3984 148.079 79.7433C147.808 80.0881 147.671 80.5572 147.671 81.1506V81.1861H150.741H150.738Z" fill="#28245F"/>
<path d="M38.142 101.112C38.1065 101.077 38.0887 101.031 38.0887 100.976V95.5339C38.0887 95.4781 38.1065 95.4325 38.142 95.397C38.1776 95.3615 38.2232 95.3438 38.2791 95.3438H38.7206C38.7764 95.3438 38.8221 95.3615 38.8576 95.397C38.8931 95.4325 38.9109 95.4781 38.9109 95.5339V100.443H41.6741C41.735 100.443 41.7833 100.461 41.8188 100.496C41.8543 100.532 41.8721 100.58 41.8721 100.641V100.973C41.8721 101.029 41.8518 101.074 41.8137 101.11C41.7756 101.145 41.7274 101.163 41.6716 101.163H38.274C38.2182 101.163 38.1725 101.145 38.137 101.11L38.142 101.112Z" fill="#28245F"/>
<path d="M45.6021 100.679C45.2063 100.298 44.9957 99.7253 44.9728 98.9595C44.9677 98.7921 44.9652 98.5588 44.9652 98.252C44.9652 97.9452 44.9677 97.7144 44.9728 97.5521C44.9957 96.8041 45.2113 96.2336 45.6224 95.8431C46.0335 95.4526 46.5892 95.2573 47.287 95.2573C47.9848 95.2573 48.5328 95.4526 48.9439 95.8431C49.355 96.2336 49.5707 96.8041 49.5935 97.5521C49.6036 97.8742 49.6113 98.1075 49.6113 98.252C49.6113 98.3965 49.6062 98.6273 49.5935 98.9595C49.5707 99.7253 49.3626 100.298 48.9642 100.679C48.5684 101.059 48.0076 101.249 47.287 101.249C46.5663 101.249 45.9979 101.059 45.6021 100.679ZM48.3375 100.144C48.5988 99.8774 48.7409 99.4691 48.7612 98.9214C48.7714 98.5893 48.779 98.3661 48.779 98.2571C48.779 98.1354 48.7739 97.9122 48.7612 97.5927C48.7384 97.0425 48.5963 96.6368 48.3324 96.3705C48.0685 96.1043 47.7209 95.9699 47.287 95.9699C46.8531 95.9699 46.4978 96.1017 46.2339 96.3705C45.97 96.6368 45.8279 97.045 45.8051 97.5927C45.8 97.7525 45.7975 97.9756 45.7975 98.2571C45.7975 98.5385 45.8 98.7566 45.8051 98.9214C45.8279 99.4717 45.97 99.8774 46.2339 100.144C46.4978 100.41 46.848 100.544 47.287 100.544C47.7259 100.544 48.0761 100.41 48.3349 100.144H48.3375Z" fill="#28245F"/>
<path d="M53.3793 101.112C53.3438 101.077 53.326 101.031 53.326 100.976V95.5415C53.326 95.4807 53.3438 95.4325 53.3793 95.397C53.4149 95.3615 53.4605 95.3438 53.5164 95.3438H55.5488C56.1883 95.3438 56.6856 95.4934 57.0485 95.7926C57.4113 96.0918 57.5889 96.5254 57.5889 97.0909C57.5889 97.5118 57.4849 97.8592 57.2768 98.1305C57.0688 98.4018 56.777 98.592 56.3989 98.696L57.6803 100.91C57.6981 100.943 57.7057 100.973 57.7057 101.001C57.7057 101.047 57.6879 101.085 57.6524 101.118C57.6169 101.151 57.5763 101.168 57.5306 101.168H57.1297C57.0459 101.168 56.9825 101.148 56.9343 101.11C56.8861 101.072 56.8429 101.016 56.8049 100.943L55.5971 98.8304H54.1406V100.978C54.1406 101.034 54.1203 101.08 54.0822 101.115C54.0441 101.151 53.9959 101.168 53.9401 101.168H53.5164C53.4605 101.168 53.4149 101.151 53.3793 101.115V101.112ZM55.5159 98.1204C56.3431 98.1204 56.7567 97.773 56.7567 97.0807C56.7567 96.3885 56.3431 96.0411 55.5159 96.0411H54.1406V98.1204H55.5159Z" fill="#28245F"/>
<path d="M61.3317 101.112C61.2962 101.077 61.2784 101.031 61.2784 100.976V95.5415C61.2784 95.4807 61.2962 95.4325 61.3317 95.397C61.3673 95.3615 61.4129 95.3438 61.4688 95.3438H64.907C64.9628 95.3438 65.0085 95.3615 65.044 95.397C65.0795 95.4325 65.0973 95.4807 65.0973 95.5415V95.8585C65.0973 95.9143 65.0795 95.9599 65.0465 95.9954C65.0136 96.0309 64.9653 96.0487 64.9044 96.0487H62.0727V97.8719H64.7218C64.7776 97.8719 64.8232 97.8896 64.8588 97.9251C64.8943 97.9606 64.9121 98.0088 64.9121 98.0696V98.3765C64.9121 98.4323 64.8943 98.4779 64.8588 98.5134C64.8232 98.5489 64.7776 98.5666 64.7218 98.5666H62.0727V100.456H64.9704C65.0313 100.456 65.0795 100.474 65.1125 100.506C65.1455 100.539 65.1633 100.588 65.1633 100.648V100.973C65.1633 101.029 65.1455 101.074 65.11 101.11C65.0745 101.145 65.0288 101.163 64.973 101.163H61.4662C61.4104 101.163 61.3647 101.145 61.3292 101.11L61.3317 101.112Z" fill="#28245F"/>
<path d="M68.8755 101.112C68.84 101.077 68.8223 101.031 68.8223 100.976V95.5415C68.8223 95.4807 68.84 95.4325 68.8755 95.397C68.9111 95.3615 68.9567 95.3438 69.0126 95.3438H69.4287C69.5175 95.3438 69.5886 95.3869 69.6444 95.4756L71.4003 98.838L73.174 95.4756C73.1841 95.4426 73.2095 95.4122 73.245 95.3843C73.2805 95.3564 73.3262 95.3438 73.382 95.3438H73.7906C73.8515 95.3438 73.8997 95.3615 73.9352 95.397C73.9707 95.4325 73.9885 95.4807 73.9885 95.5415V100.976C73.9885 101.031 73.9682 101.077 73.9301 101.112C73.8921 101.148 73.8439 101.166 73.788 101.166H73.3795C73.3237 101.166 73.278 101.148 73.2425 101.112C73.207 101.077 73.1892 101.031 73.1892 100.976V96.8829L71.7987 99.5961C71.7429 99.7128 71.654 99.7711 71.5322 99.7711H71.2734C71.1516 99.7711 71.0628 99.7128 71.007 99.5961L69.6089 96.8829V100.976C69.6089 101.031 69.5911 101.077 69.5556 101.112C69.5201 101.148 69.4744 101.166 69.4186 101.166H69.01C68.9542 101.166 68.9085 101.148 68.873 101.112H68.8755Z" fill="#28245F"/>
<path d="M82.5218 101.112C82.4863 101.077 82.4685 101.031 82.4685 100.976V95.5339C82.4685 95.4781 82.4863 95.4325 82.5218 95.397C82.5573 95.3615 82.603 95.3438 82.6588 95.3438H83.1003C83.1561 95.3438 83.2018 95.3615 83.2373 95.397C83.2729 95.4325 83.2906 95.4781 83.2906 95.5339V100.976C83.2906 101.031 83.2729 101.077 83.2373 101.112C83.2018 101.148 83.1561 101.166 83.1003 101.166H82.6588C82.603 101.166 82.5573 101.148 82.5218 101.112Z" fill="#28245F"/>
<path d="M87.2923 101.112C87.2568 101.077 87.239 101.031 87.239 100.976V95.5415C87.239 95.4807 87.2568 95.4325 87.2923 95.397C87.3278 95.3615 87.3735 95.3438 87.4293 95.3438H89.543C90.1698 95.3438 90.6646 95.4959 91.0249 95.8002C91.3852 96.1045 91.5654 96.5457 91.5654 97.1238C91.5654 97.702 91.3852 98.1406 91.0274 98.4424C90.6696 98.7441 90.1748 98.8963 89.5405 98.8963H88.0662V100.976C88.0662 101.031 88.0459 101.077 88.0079 101.112C87.9698 101.148 87.9216 101.166 87.8658 101.166H87.4242C87.3684 101.166 87.3227 101.148 87.2872 101.112H87.2923ZM89.5024 98.1964C89.9084 98.1964 90.2154 98.1051 90.4235 97.9226C90.6316 97.74 90.7356 97.4738 90.7356 97.1238C90.7356 96.7739 90.6316 96.5076 90.4286 96.32C90.223 96.1349 89.916 96.0411 89.5049 96.0411H88.0637V98.1964H89.5049H89.5024Z" fill="#28245F"/>
<path d="M95.7597 101.033C95.4247 100.889 95.1659 100.699 94.9883 100.463C94.8107 100.227 94.7168 99.9736 94.7041 99.7022C94.7041 99.6591 94.7219 99.6186 94.7574 99.5805C94.7929 99.545 94.836 99.5273 94.8868 99.5273H95.3105C95.4171 99.5273 95.4882 99.5831 95.5262 99.6946C95.577 99.9279 95.7191 100.128 95.9551 100.293C96.191 100.458 96.5234 100.542 96.9497 100.542C97.4116 100.542 97.7566 100.46 97.9901 100.296C98.2235 100.131 98.3402 99.9026 98.3402 99.6084C98.3402 99.4208 98.2844 99.2686 98.1702 99.152C98.0561 99.0353 97.8886 98.9339 97.6678 98.8452C97.4445 98.7564 97.1121 98.6448 96.6681 98.513C96.2342 98.3913 95.8916 98.2594 95.6353 98.1225C95.3791 97.983 95.1888 97.8106 95.0619 97.6052C94.935 97.3998 94.8716 97.1412 94.8716 96.8318C94.8716 96.5225 94.9528 96.2638 95.1177 96.0255C95.2801 95.7871 95.5161 95.5995 95.8206 95.4651C96.1251 95.3307 96.4905 95.2622 96.9117 95.2622C97.3329 95.2622 97.716 95.3383 98.0281 95.4904C98.3403 95.6426 98.5762 95.8353 98.7361 96.0686C98.8959 96.3018 98.9822 96.5351 98.9949 96.7684C98.9949 96.8115 98.9797 96.8521 98.9492 96.8851C98.9188 96.918 98.8757 96.9358 98.8198 96.9358H98.3783C98.2616 96.9358 98.1905 96.8825 98.1626 96.7786C98.1296 96.5453 97.9977 96.3526 97.7719 96.2004C97.5435 96.0483 97.2593 95.9722 96.9142 95.9722C96.5361 95.9722 96.2392 96.0432 96.0236 96.1877C95.8079 96.3323 95.6988 96.5453 95.6988 96.8293C95.6988 97.0169 95.7495 97.1741 95.8536 97.2958C95.9551 97.4176 96.1124 97.5241 96.323 97.6153C96.5336 97.7066 96.8406 97.8106 97.2466 97.9272C97.7186 98.054 98.0916 98.1859 98.3631 98.3228C98.6346 98.4597 98.8376 98.6271 98.9695 98.8299C99.104 99.0328 99.17 99.2889 99.17 99.6008C99.17 100.118 98.9695 100.521 98.5712 100.815C98.1702 101.11 97.6323 101.257 96.9548 101.257C96.493 101.257 96.0946 101.186 95.7597 101.041V101.033Z" fill="#28245F"/>
<path d="M103.296 100.671C102.905 100.286 102.71 99.7026 102.71 98.9191V95.5415C102.71 95.4807 102.727 95.4325 102.763 95.397C102.799 95.3615 102.844 95.3438 102.9 95.3438H103.324C103.385 95.3438 103.433 95.3615 103.468 95.397C103.504 95.4325 103.522 95.4807 103.522 95.5415V98.9369C103.522 99.4694 103.646 99.8675 103.897 100.134C104.146 100.4 104.499 100.534 104.955 100.534C105.412 100.534 105.762 100.403 106.013 100.134C106.262 99.8675 106.389 99.4694 106.389 98.9369V95.5415C106.389 95.4807 106.407 95.4325 106.442 95.397C106.478 95.3615 106.523 95.3438 106.579 95.3438H107.013C107.069 95.3438 107.115 95.364 107.15 95.4021C107.186 95.4401 107.204 95.4883 107.204 95.5441V98.9216C107.204 99.7026 107.008 100.288 106.617 100.674C106.227 101.059 105.673 101.252 104.955 101.252C104.237 101.252 103.687 101.059 103.293 100.674L103.296 100.671Z" fill="#28245F"/>
<path d="M111.147 101.112C111.111 101.077 111.093 101.031 111.093 100.976V95.5415C111.093 95.4807 111.111 95.4325 111.147 95.397C111.182 95.3615 111.228 95.3438 111.284 95.3438H111.7C111.789 95.3438 111.86 95.3869 111.916 95.4756L113.671 98.838L115.445 95.4756C115.455 95.4426 115.481 95.4122 115.516 95.3843C115.552 95.3564 115.597 95.3438 115.653 95.3438H116.062C116.123 95.3438 116.171 95.3615 116.206 95.397C116.242 95.4325 116.26 95.4807 116.26 95.5415V100.976C116.26 101.031 116.239 101.077 116.201 101.112C116.163 101.148 116.115 101.166 116.059 101.166H115.651C115.595 101.166 115.549 101.148 115.514 101.112C115.478 101.077 115.46 101.031 115.46 100.976V96.8829L114.07 99.5961C114.014 99.7128 113.925 99.7711 113.803 99.7711H113.545C113.423 99.7711 113.334 99.7128 113.278 99.5961L111.88 96.8829V100.976C111.88 101.031 111.862 101.077 111.827 101.112C111.791 101.148 111.746 101.166 111.69 101.166H111.281C111.225 101.166 111.18 101.148 111.144 101.112H111.147Z" fill="#28245F"/>
</g>
<defs>
<clipPath id="clip0_9_29">
<rect width="153" height="101" fill="white" transform="translate(0.935547 0.249023)"/>
</clipPath>
</defs>
</svg>
