<svg width="102" height="115" viewBox="0 0 102 115" fill="none" xmlns="http://www.w3.org/2000/svg">
<g clip-path="url(#clip0_9_12)">
<path d="M75.4815 55.2666H26.4142C24.0891 55.2666 22.2035 57.1596 22.2035 59.4936C22.2035 61.8277 24.0891 63.7207 26.4142 63.7207H75.4833C77.8083 63.7207 79.6939 61.8277 79.6939 59.4936C79.6939 57.1596 77.8083 55.2666 75.4833 55.2666H75.4815Z" fill="#273826"/>
<path d="M36.6544 31.857L39.3901 53.1767H62.5055L65.2412 31.857H52.3138V26.6826C55.8239 26.0354 58.4839 22.9564 58.4839 19.2464C58.4839 15.0682 50.9469 0.749023 50.9469 0.749023C50.9469 0.749023 43.4098 15.0664 43.4098 19.2464C43.4098 22.9564 46.0699 26.0354 49.58 26.6826V31.857H36.6544Z" fill="#273826"/>
<path d="M68.0165 65.8091H59.2782L66.057 90.2981C66.6784 92.5436 68.9944 93.8598 71.233 93.2415C73.477 92.6195 74.7935 90.2872 74.1704 88.0363L68.0183 65.8091H68.0165Z" fill="#273826"/>
<path d="M27.529 88.0344C26.9058 90.2871 28.2223 92.6194 30.4663 93.2395C32.7049 93.8597 35.0192 92.5435 35.6423 90.2961L42.4211 65.8071H33.6829L27.5308 88.0344H27.529Z" fill="#273826"/>
<path d="M0.815187 114.436C0.725139 114.346 0.680115 114.241 0.680115 114.122V102.453C0.680115 102.321 0.725139 102.214 0.815187 102.129C0.905236 102.046 1.00969 102.003 1.12856 102.003H9.35537C9.48684 102.003 9.5931 102.045 9.67774 102.129C9.76059 102.213 9.80381 102.321 9.80381 102.453V104.267C9.80381 104.386 9.76239 104.491 9.67774 104.581C9.5949 104.672 9.48684 104.715 9.35537 104.715H3.83001V107.355H8.99878C9.13025 107.355 9.23651 107.4 9.32115 107.488C9.404 107.579 9.44722 107.689 9.44722 107.821V109.616C9.44722 109.736 9.4058 109.841 9.32115 109.931C9.23831 110.021 9.13025 110.065 8.99878 110.065H3.83001V114.122C3.83001 114.254 3.78858 114.362 3.70394 114.445C3.61929 114.529 3.51304 114.572 3.38156 114.572H1.12675C1.00789 114.572 0.903435 114.527 0.813386 114.436H0.815187Z" fill="#273826"/>
<path d="M13.0455 113.511C12.0982 112.684 11.6246 111.441 11.6246 109.777V102.453C11.6246 102.321 11.6696 102.214 11.7596 102.129C11.8497 102.046 11.9541 102.003 12.073 102.003H14.3801C14.5115 102.003 14.6214 102.045 14.7114 102.129C14.8015 102.213 14.8447 102.321 14.8447 102.453V109.759C14.8447 110.537 15.0266 111.121 15.3904 111.509C15.7542 111.898 16.2819 112.093 16.9734 112.093C17.665 112.093 18.1765 111.896 18.5475 111.5C18.9167 111.106 19.1022 110.526 19.1022 109.759V102.453C19.1022 102.321 19.1472 102.214 19.2373 102.129C19.3273 102.046 19.4318 102.003 19.5506 102.003H21.8757C22.0071 102.003 22.1134 102.045 22.198 102.129C22.2809 102.213 22.3241 102.321 22.3241 102.453V109.777C22.3241 111.441 21.8505 112.686 20.9032 113.511C19.9558 114.335 18.6519 114.749 16.9951 114.749C15.3382 114.749 14 114.337 13.0527 113.511H13.0455Z" fill="#273826"/>
<path d="M24.8311 114.436C24.741 114.346 24.696 114.241 24.696 114.122V102.453C24.696 102.321 24.741 102.214 24.8311 102.129C24.9211 102.046 25.0256 102.003 25.1444 102.003H30.0088C31.5703 102.003 32.7895 102.359 33.6666 103.071C34.5437 103.784 34.9813 104.793 34.9813 106.096C34.9813 106.933 34.785 107.646 34.3906 108.233C33.998 108.819 33.4541 109.269 32.7625 109.58L35.2118 113.997C35.2478 114.069 35.2659 114.134 35.2659 114.194C35.2659 114.29 35.228 114.377 35.1506 114.454C35.0731 114.532 34.9867 114.572 34.8913 114.572H32.5122C32.1664 114.572 31.9215 114.411 31.7792 114.087L29.7405 110.139H27.9161V114.124C27.9161 114.256 27.8711 114.364 27.7828 114.447C27.6928 114.53 27.5829 114.574 27.4515 114.574H25.1444C25.0256 114.574 24.9211 114.529 24.8311 114.438V114.436ZM29.971 107.588C30.5185 107.588 30.9363 107.452 31.2227 107.185C31.509 106.915 31.6513 106.541 31.6513 106.062C31.6513 105.583 31.5108 105.203 31.2317 104.923C30.9507 104.643 30.5311 104.502 29.971 104.502H27.9143V107.59H29.971V107.588Z" fill="#273826"/>
<path d="M37.1875 114.436C37.0975 114.346 37.0524 114.241 37.0524 114.122V102.453C37.0524 102.321 37.0975 102.214 37.1875 102.129C37.2776 102.046 37.382 102.003 37.5009 102.003H39.3973C39.6944 102.003 39.898 102.117 40.006 102.345L44.3698 109.238V102.453C44.3698 102.321 44.4148 102.214 44.5048 102.129C44.5949 102.046 44.6993 102.003 44.8182 102.003H46.9649C47.0964 102.003 47.2027 102.045 47.2873 102.129C47.3702 102.213 47.4116 102.321 47.4116 102.453V114.104C47.4116 114.236 47.3702 114.346 47.2873 114.436C47.2045 114.527 47.0964 114.572 46.9649 114.572H45.0523C44.7894 114.572 44.5931 114.458 44.4616 114.23L40.0979 107.588V114.122C40.0979 114.241 40.0564 114.346 39.9736 114.436C39.8907 114.527 39.7827 114.572 39.6512 114.572H37.5045C37.3856 114.572 37.2811 114.527 37.1911 114.436H37.1875Z" fill="#273826"/>
<path d="M50.0446 114.436C49.9546 114.346 49.9095 114.241 49.9095 114.122V102.453C49.9095 102.321 49.9546 102.214 50.0446 102.129C50.1347 102.046 50.2391 102.003 50.358 102.003H52.7551C52.8865 102.003 52.9964 102.045 53.0864 102.129C53.1765 102.213 53.2215 102.321 53.2215 102.453V114.122C53.2215 114.254 53.1765 114.362 53.0864 114.445C52.9964 114.529 52.8865 114.572 52.7551 114.572H50.358C50.2391 114.572 50.1347 114.527 50.0446 114.436Z" fill="#273826"/>
<path d="M58.592 114.437C58.502 114.346 58.4588 114.241 58.4588 114.122V104.824H55.2764C55.1576 104.824 55.0531 104.778 54.9631 104.69C54.873 104.601 54.828 104.494 54.828 104.375V102.455C54.828 102.323 54.873 102.216 54.9631 102.131C55.0531 102.048 55.1576 102.005 55.2764 102.005H64.8972C65.0287 102.005 65.1349 102.046 65.2196 102.131C65.3024 102.215 65.3456 102.323 65.3456 102.455V104.375C65.3456 104.507 65.3042 104.614 65.2196 104.699C65.1349 104.784 65.0287 104.824 64.8972 104.824H61.7149V114.122C61.7149 114.241 61.6735 114.346 61.5888 114.437C61.506 114.527 61.3979 114.572 61.2665 114.572H58.9054C58.7865 114.572 58.6821 114.527 58.592 114.437Z" fill="#273826"/>
<path d="M68.2848 113.511C67.3375 112.684 66.8638 111.441 66.8638 109.777V102.453C66.8638 102.321 66.9089 102.214 66.9989 102.129C67.089 102.046 67.1934 102.003 67.3123 102.003H69.6193C69.7508 102.003 69.8606 102.045 69.9507 102.129C70.0407 102.213 70.084 102.321 70.084 102.453V109.759C70.084 110.537 70.2659 111.121 70.6297 111.509C70.9934 111.898 71.5211 112.093 72.2127 112.093C72.9043 112.093 73.4157 111.896 73.7867 111.5C74.1559 111.106 74.3414 110.526 74.3414 109.759V102.453C74.3414 102.321 74.3865 102.214 74.4765 102.129C74.5666 102.046 74.671 102.003 74.7899 102.003H77.1149C77.2464 102.003 77.3527 102.045 77.4373 102.129C77.5202 102.213 77.5634 102.321 77.5634 102.453V109.777C77.5634 111.441 77.0897 112.686 76.1424 113.511C75.1951 114.335 73.8912 114.749 72.2343 114.749C70.5774 114.749 69.2393 114.337 68.292 113.511H68.2848Z" fill="#273826"/>
<path d="M80.0685 114.436C79.9785 114.346 79.9335 114.241 79.9335 114.122V102.453C79.9335 102.321 79.9785 102.214 80.0685 102.129C80.1586 102.046 80.263 102.003 80.3819 102.003H85.2463C86.8078 102.003 88.027 102.359 88.9041 103.071C89.7812 103.784 90.2188 104.793 90.2188 106.096C90.2188 106.933 90.0225 107.646 89.6281 108.233C89.2355 108.819 88.6916 109.269 88 109.58L90.4493 113.997C90.4853 114.069 90.5033 114.134 90.5033 114.194C90.5033 114.29 90.4655 114.377 90.3881 114.454C90.3106 114.532 90.2242 114.572 90.1287 114.572H87.7497C87.4039 114.572 87.159 114.411 87.0167 114.087L84.978 110.139H83.1536V114.124C83.1536 114.256 83.1086 114.364 83.0203 114.447C82.9303 114.53 82.8204 114.574 82.6889 114.574H80.3819C80.263 114.574 80.1586 114.529 80.0685 114.438V114.436ZM85.2103 107.588C85.7578 107.588 86.1756 107.452 86.462 107.185C86.7483 106.915 86.8906 106.541 86.8906 106.062C86.8906 105.583 86.7501 105.203 86.471 104.923C86.19 104.643 85.7704 104.502 85.2103 104.502H83.1536V107.59H85.2103V107.588Z" fill="#273826"/>
<path d="M92.4249 114.436C92.3349 114.346 92.2899 114.241 92.2899 114.122V102.453C92.2899 102.321 92.3349 102.214 92.4249 102.129C92.515 102.046 92.6194 102.003 92.7383 102.003H101.089C101.221 102.003 101.327 102.045 101.412 102.129C101.495 102.213 101.536 102.321 101.536 102.453V104.14C101.536 104.259 101.495 104.364 101.412 104.455C101.329 104.545 101.221 104.59 101.089 104.59H95.3857V107.013H100.697C100.828 107.013 100.934 107.058 101.019 107.148C101.102 107.239 101.143 107.349 101.143 107.481V109.043C101.143 109.163 101.102 109.267 101.019 109.358C100.936 109.448 100.828 109.492 100.697 109.492H95.3857V111.987H101.233C101.365 111.987 101.471 112.028 101.556 112.111C101.639 112.194 101.682 112.303 101.682 112.435V114.122C101.682 114.241 101.64 114.346 101.556 114.436C101.473 114.527 101.365 114.572 101.233 114.572H92.7383C92.6194 114.572 92.515 114.527 92.4249 114.436Z" fill="#273826"/>
</g>
<defs>
<clipPath id="clip0_9_12">
<rect width="101" height="114" fill="white" transform="translate(0.680115 0.749023)"/>
</clipPath>
</defs>
</svg>
