<svg width="76" height="75" viewBox="0 0 76 75" fill="none" xmlns="http://www.w3.org/2000/svg">
<g clip-path="url(#clip0_1_71)">
<path d="M1.17792 64.3958C0.560128 64.3038 0.210505 63.8254 0.135455 63.2356C-0.233388 60.3123 0.176641 55.3988 1.0388 52.5712C2.13618 48.9716 5.84932 46.4192 8.94193 44.5982C12.5626 42.4654 16.4826 40.8386 20.4191 39.3903L20.6122 39.2164L20.6076 35.8459C18.2893 32.7791 16.9997 29.1418 16.5201 25.3251C16.479 25.0012 16.4085 23.264 16.316 23.1848C15.4832 23.0625 14.2229 23.5658 13.9868 22.4432C13.8733 21.904 13.8815 20.118 13.9456 19.5393C14.0023 19.0314 14.2293 18.5455 14.8114 18.5695L44.0626 18.6155C44.3838 18.7158 44.5568 19.1427 44.5989 19.4565C44.6749 20.0177 44.673 22.0908 44.5184 22.5812C44.2054 23.5777 42.9643 22.9953 42.2165 23.229C41.9877 26.8277 41.196 30.4217 39.4369 33.575C38.9821 34.3902 38.4073 35.1236 37.9295 35.9241L37.9771 39.2808L42.2184 40.9425C42.2778 41.0272 41.9758 41.9547 41.9063 42.0384C41.8459 42.1102 40.2423 42.4792 40.0886 42.47C39.6401 42.4442 38.1098 41.6658 37.5149 41.4845C37.3346 41.4293 37.1314 41.2986 36.9447 41.3685L29.9587 47.2326C29.4672 47.5445 29.0864 47.5215 28.594 47.2326L21.3554 41.3446L17.375 42.9539L18.1566 50.7806H41.9072L43.3981 54.2173L40.8967 58.2355L45.3988 62.7332L49.0928 60.442V62.1903H53.1198L53.5774 64.3986H1.17792V64.3958ZM40.03 23.1738H18.5218C18.6307 29.2246 22.4143 38.6919 29.6466 38.3606C36.4148 38.0505 39.9101 28.9817 40.03 23.1738ZM35.8199 39.6442V38.08C32.9991 40.3527 29.5496 41.122 26.0268 40.1503C24.8361 39.8218 23.7314 39.2274 22.7768 38.449L22.7502 39.5798L29.275 44.8927L35.819 39.6442H35.8199ZM13.5795 50.7779L12.4803 45.165C9.69701 46.7007 6.36918 48.4067 4.33825 50.9186C2.65054 53.0064 2.32655 56.7504 2.22679 59.3774C2.19109 60.3104 2.26065 61.2545 2.23045 62.1875H9.46087V53.5843C9.46087 52.6264 11.2932 50.7779 12.2524 50.7779H13.5795ZM16.0195 54.3986C14.7107 54.4345 14.4645 56.3796 15.7513 56.6455C17.4619 56.9989 17.6139 54.3553 16.0195 54.3986Z" fill="black"/>
<path d="M59.5155 27.5075L60.4564 31.8984C61.1447 32.0245 61.8247 32.2398 62.4764 32.4901C63.4053 32.8462 64.251 33.3789 65.148 33.7562L68.9069 31.3841L72.0223 34.4932L71.9949 34.737L69.6967 38.47C70.6248 39.8649 71.14 41.4669 71.6443 43.055L75.9597 44.0534L76 48.4305L75.8444 48.6421L71.5949 49.5411C71.2233 51.201 70.5479 52.7717 69.6848 54.2255L72.0425 57.999L68.9535 61.2222L65.2862 58.9182L64.9933 58.8841C63.5865 59.727 62.0691 60.3803 60.461 60.7318L59.5165 65.119L55.0052 65.1337L54.0222 60.7235C52.3437 60.4134 50.7924 59.6478 49.3216 58.8087L45.5672 61.2415L42.4527 58.1324L42.4554 57.8637L44.771 54.1482C43.8328 52.7616 43.3176 51.1633 42.8242 49.576L38.5153 48.5713L38.475 44.1942L38.6297 43.9816L42.8627 42.9925C43.2526 41.3344 43.9848 39.8134 44.7719 38.3219L42.4215 34.5521L45.5224 31.4006L49.3737 33.804C50.8171 32.9428 52.3583 32.1984 54.0241 31.8984L54.9604 27.5029H59.5192L59.5155 27.5075ZM56.5776 39.0276C51.466 39.4914 48.4246 45.0665 50.7823 49.6754C53.3559 54.7067 60.5589 54.9506 63.4429 50.0692C66.4641 44.9542 62.4699 38.4921 56.5776 39.0267V39.0276Z" fill="black"/>
<path d="M29.5047 74.3792C29.4901 74.4509 29.3748 74.5853 29.3217 74.6552C29.2109 74.7224 27.5699 74.7417 27.3539 74.7012C26.9722 74.6304 27.0272 74.0847 27.0345 73.7802C26.7471 73.7995 26.4469 73.7553 26.1604 73.7765C25.1482 73.851 26.1092 74.5236 25.2534 74.7049L9.69153 74.6994C8.585 74.5614 7.89582 73.7369 7.8107 72.6337C7.74389 71.7724 7.6963 69.3009 7.85463 68.5299C8.02578 67.7008 8.72869 67.0945 9.52953 66.9012L25.2543 66.8755C25.8996 66.9592 25.5344 67.4653 25.7019 67.7137L27.0354 67.8002L27.1196 67.0328C27.2624 66.8055 29.1176 66.8184 29.3528 66.9647C29.4004 66.9942 29.5066 67.1653 29.5066 67.2012V69.6396H44.8369C44.9797 69.6396 45.9956 68.7682 46.2592 68.6771C46.3315 68.6523 46.4001 68.6182 46.4797 68.6228L51.93 69.1786L51.9328 72.3475L46.4788 73.0027L44.836 71.9399H29.5056C29.405 72.6438 29.6411 73.7268 29.5056 74.3783L29.5047 74.3792ZM10.9903 68.7397C10.3331 69.1086 10.6653 69.8632 11.3353 69.9184L23.0523 69.9165C23.9016 69.9257 24.1817 68.8289 23.2371 68.7185L10.9903 68.7397ZM11.2676 71.6869C10.4567 71.8332 10.4283 72.7708 11.1495 72.8665L23.6078 72.7763C24.1277 72.1736 23.6389 71.6767 22.9589 71.6666L11.2667 71.6869H11.2676Z" fill="black"/>
<path d="M42.8673 17.469H32.2504L32.4454 12.1901C32.8362 10.6443 33.6965 9.82908 33.3075 8.07899C33.2023 7.60512 32.741 6.89017 32.7026 6.56905C32.6211 5.88447 32.8581 4.39661 32.8948 3.62461C32.9085 3.33017 32.7913 1.97297 33.0256 1.93433C37.7089 3.17099 41.5228 7.28951 42.5478 12.0392C42.9396 13.8547 42.8828 15.6213 42.8673 17.469Z" fill="black"/>
<path d="M26.3014 17.4689H15.6845C15.6717 15.6489 15.6113 13.9043 15.9875 12.1147C17.0043 7.28487 20.7815 3.20315 25.5252 1.92969C25.657 1.93797 25.6534 2.3962 25.6598 2.51029C25.7229 3.61169 25.7229 4.72874 25.7476 5.8329C25.7531 6.08134 25.8712 6.31505 25.8511 6.56533C25.8309 6.8156 25.4676 7.30696 25.3596 7.64373C24.8663 9.17943 25.2406 10.2983 26.0195 11.6316L26.2995 17.4689H26.3014Z" fill="black"/>
<path d="M28.8439 5.80896C32.763 5.33141 33.853 10.959 30.2186 12.0677C25.7852 13.4203 24.4334 6.34632 28.8439 5.80896Z" fill="black"/>
<path d="M32.0674 0.722412L31.8377 5.69206C30.6936 4.94491 29.4031 4.6109 28.0586 5.01944C27.5644 5.16942 27.147 5.51171 26.6675 5.69022L26.4844 0.722412L32.0674 0.722412Z" fill="black"/>
<path d="M31.5173 12.5002L31.2949 17.3825L27.3054 17.5205L27.0345 12.5002C28.4458 13.367 30.1014 13.3541 31.5173 12.5002Z" fill="black"/>
</g>
<defs>
<clipPath id="clip0_1_71">
<rect width="76" height="74" fill="white" transform="translate(0 0.722412)"/>
</clipPath>
</defs>
</svg>
