<svg width="56" height="68" viewBox="0 0 56 68" fill="none" xmlns="http://www.w3.org/2000/svg">
<g clip-path="url(#clip0_1_115)">
<path d="M25.2039 67.8836C24.2197 67.4853 23.7613 66.8117 23.6684 65.7249L25.5885 40.009H11.1922C10.2946 40.009 9.16626 38.3322 9.69198 37.4275L29.2429 1.53928C30.6325 0.141127 32.5511 1.13606 32.6264 3.03578L30.7063 28.7517H45.1026C46.0001 28.7517 47.1285 30.4285 46.6028 31.3333L26.9926 67.2919L25.97 67.882H25.2022L25.2039 67.8836Z" fill="black"/>
<path d="M34.5466 61.732L37.1399 56.795C44.6907 53.6299 50.2668 46.4736 51.5298 38.2043C53.3073 26.5568 46.7006 15.3437 35.8849 11.4853L36.1446 7.42358C44.7949 10.1855 51.751 17.1533 54.4165 26.0372C56.2084 32.0085 56.0321 38.2305 53.9661 44.1002C50.9079 52.7858 43.3491 59.6651 34.5466 61.7353V61.732Z" fill="black"/>
<path d="M21.7482 7.02842L19.1549 11.9654C11.5993 15.1354 6.02799 22.2803 4.76499 30.5561C2.98748 42.2036 9.59422 53.4167 20.4099 57.2751L20.1502 61.3368C11.4999 58.575 4.5438 51.6071 1.87835 42.7232C0.0864208 36.7519 0.262729 30.5299 2.32873 24.6603C5.38687 15.9747 12.9457 9.09533 21.7482 7.02515V7.02842Z" fill="black"/>
</g>
<defs>
<clipPath id="clip0_1_115">
<rect width="55" height="67" fill="white" transform="translate(0.6474 0.883545)"/>
</clipPath>
</defs>
</svg>
