<svg width="64" height="72" viewBox="0 0 64 72" fill="none" xmlns="http://www.w3.org/2000/svg">
<g clip-path="url(#clip0_1_84)">
<path d="M38.2687 51.8565L38.4086 52.1195L37.9429 58.7467C38.0096 59.4053 37.8672 60.1773 37.948 60.8166C37.9775 61.0499 37.9044 61.0254 38.2046 61.0074C38.9897 54.7796 39.8863 48.4888 41.6052 42.448C42.3544 39.8148 43.6834 34.015 47.4175 34.9314C47.9319 35.0577 48.7683 35.8194 48.9171 35.8284C49.1595 35.8426 50.0678 35.1711 50.9311 35.2562C52.3793 35.4005 52.8963 36.7461 53.2991 36.884C54.047 37.1405 54.5703 36.6546 55.5273 37.4807C56.3611 38.1999 56.161 38.9049 56.542 39.5223C56.6305 39.6666 57.2988 40.0017 57.572 40.3239C58.1647 41.0186 58.4931 42.3719 58.4777 43.278C58.4636 44.0706 57.9017 45.4922 57.962 46.1096C58.0364 46.87 59.2127 48.5816 59.0998 49.6165L61.0073 67.5225C60.9586 67.7854 59.4282 67.8601 59.1139 67.8395L57.1551 49.3794C56.8229 47.682 55.889 46.3325 54.7692 45.0643C54.714 44.8542 55.3182 43.644 55.5196 43.5357C55.8749 43.345 56.034 44.0642 56.4188 43.9946C56.356 43.1349 56.7177 41.8396 55.7312 41.4272C54.9257 41.569 53.1926 45.8003 52.8591 46.6689C51.3531 50.5922 49.293 57.2504 48.7491 61.3592C48.7131 61.6324 48.64 61.6904 48.9761 61.6518L51.2864 54.4342V68.096H45.3856C46.4901 62.4277 47.6523 56.749 49.2981 51.2121C50.0998 48.5146 50.9721 45.7075 52.2023 43.1749C52.768 42.0085 53.462 40.5998 54.5588 39.8754C54.4639 38.6149 53.6967 38.6394 52.836 39.3006C50.8798 40.8034 48.7683 48.695 48.0884 51.2856C46.6414 56.8006 45.5126 62.4406 44.7429 68.0947H42.6905C43.9143 60.6632 45.2625 53.1647 47.5625 45.9884C48.4489 43.2238 49.4623 39.9334 51.5391 37.8713C50.2281 36.0591 48.7606 39.0982 48.2244 40.2092C47.2084 42.3178 46.4349 45.0437 45.8051 47.3159C43.9245 54.1017 42.9137 61.1079 42.0491 68.0947H40.1249C40.9228 60.7689 42.0363 53.4057 44.0374 46.3132C44.893 43.2831 45.8423 40.1177 47.5471 37.4601C47.1777 36.6327 46.3849 36.6481 45.7627 37.2204C44.5941 38.294 42.915 45.1197 42.4968 46.9563C40.9228 53.8555 40.0377 61.0383 39.4835 68.0947H15.3711V52.0486L15.5635 51.8553H38.2687V51.8565ZM21.9133 55.2075H18.8346V57.0119H21.9133V55.2075Z" fill="black"/>
<path d="M32.4051 0.0824439C38.0378 -0.216569 45.3753 2.16135 46.3785 8.52181C46.8108 11.2683 46.6042 14.3113 46.8223 17.0978C49.0159 18.5387 48.9774 21.8317 47.2328 23.6168C46.9057 23.9519 46.0257 24.3656 45.8666 24.693C45.6049 25.2356 45.4382 26.7848 45.2214 27.5246C41.8592 39.0082 25.1394 39.1693 21.5913 27.8829C21.3809 27.2127 21.0089 24.8438 20.819 24.5344C20.7613 24.4404 19.5375 23.7405 19.1116 23.1567C17.5659 21.0417 18.0007 18.7024 19.8569 16.9895C20.3405 13.1952 19.4336 8.42386 21.6259 5.10508C23.8182 1.7863 28.626 0.283504 32.4051 0.0824439ZM31.6354 14.3886C28.9583 14.5098 26.0322 14.8475 23.4513 15.5744C23.0434 15.6891 21.9799 15.867 22.0992 16.425C22.13 16.572 22.3622 16.8723 22.5149 16.9096C22.7522 16.9689 24.5224 16.4134 24.9675 16.3245C30.9992 15.1156 36.3202 15.2303 42.3338 16.4534C42.8559 16.5591 44.0464 17.0604 44.4145 16.7898C44.6608 16.6093 44.7121 16.2807 44.5569 16.0229C44.3748 15.7187 40.6457 15.0034 40.0274 14.9029C37.3169 14.4647 34.3793 14.2636 31.6367 14.3874L31.6354 14.3886ZM45.9038 18.9911C44.1669 22.1011 41.1524 20.8445 38.3803 20.5532C34.9732 20.1949 31.8137 20.2013 28.408 20.5532C26.2131 20.78 23.949 21.7338 21.9479 20.3083C21.581 20.0467 20.7805 19.0104 20.692 18.9911C20.3021 18.9035 20.0647 20.066 20.0596 20.3431C20.034 21.8884 21.0435 22.8847 22.5418 22.9981C22.8497 27.9576 25.0009 32.3629 29.9948 33.8773C35.8109 35.6404 41.8297 32.7766 43.4999 26.826C43.6667 26.2331 44.1387 23.167 44.2631 23.0188C44.3606 22.9028 45.2381 22.8061 45.6357 22.5277C46.39 21.998 46.8236 20.7439 46.6414 19.8598C46.5965 19.6446 46.1578 18.812 45.9038 18.9937V18.9911Z" fill="black"/>
<path d="M12.9338 45.7991V48.5057L11.5446 49.3653C11.5856 49.8306 11.3252 51.8386 11.7344 51.9675C11.9358 52.0306 12.2219 51.9585 12.4553 52.0165C13.2545 52.2162 13.7548 52.6777 13.9305 53.4986L13.928 64.6472C13.7125 66.0585 12.5657 66.1061 12.3566 66.5482C12.2142 66.8485 12.1693 67.8796 12.0025 68.3835C11.2149 70.7589 8.60186 71.6959 6.39419 70.6094C4.99082 69.9186 4.56879 68.4016 4.31351 66.9645C1.91728 66.7132 1.0963 63.9911 0.78458 61.9393C0.493389 60.0228 0.431815 52.6416 1.59273 51.2225L4.33917 48.8292C4.33917 48.7415 3.70034 48.4386 3.70034 48.3136V45.8004H12.9364L12.9338 45.7991ZM4.85228 50.9545C4.62908 50.899 4.59573 51.0473 4.46617 51.1465C2.9961 52.2833 2.76648 52.6287 2.54327 54.4988C2.2585 56.8935 2.2213 62.0192 3.33475 64.1407C3.59644 64.6381 3.89148 64.9539 4.45975 65.0725C5.82976 65.3586 10.2387 65.2787 11.4971 64.7825C11.9499 64.6033 12.1757 64.3623 12.1641 63.8416H8.05924V61.9084H12.1641V60.4906H8.05924V58.5574H12.1641V57.1396H8.05924V55.2064H12.1641V53.9175H4.85228V50.9532V50.9545Z" fill="black"/>
<path d="M60.7815 9.71143L59.2422 15.2535H63.6037L59.7553 25.0487H63.3471L55.8441 31.4942L52.4435 25.0487H55.6504L56.4201 20.9244H52.8283L54.8807 9.71143H60.7815Z" fill="black"/>
<path d="M17.6801 41.5458C15.7392 42.2908 13.8946 43.3528 12.3565 44.7654L11.0122 43.4134C15.2928 39.6577 21.0269 38.0969 26.5928 37.553L26.8597 37.6716L33.3865 44.505L39.9338 37.5388L41.8413 37.6986L42.0504 37.8713L41.3949 39.4669L40.57 39.6048L33.3775 47.2077L26.1477 39.5468C25.7321 39.3381 23.5604 39.8085 23.0678 40.0637V50.8255H17.6801V41.5458Z" fill="black"/>
<path d="M6.64814 38.646C6.48266 37.8353 5.13189 36.2062 4.98822 35.2872C4.73295 33.6543 5.50133 31.4903 5.63474 29.8316L11.1379 29.8174C11.134 31.7545 12.2026 33.9469 11.5035 35.7925C11.3188 36.281 9.98338 38.6086 9.98338 38.7762V45.0271H6.64814V38.6473V38.646Z" fill="black"/>
</g>
<defs>
<clipPath id="clip0_1_84">
<rect width="63" height="71" fill="white" transform="translate(0.603668 0.0578613)"/>
</clipPath>
</defs>
</svg>
