<svg width="64" height="72" viewBox="0 0 64 72" fill="none" xmlns="http://www.w3.org/2000/svg">
<g clip-path="url(#clip0_1_93)">
<path d="M37.9785 51.8565L38.1183 52.1195L37.6526 58.7467C37.7194 59.4053 37.577 60.1773 37.6578 60.8166C37.6873 61.0499 37.6142 61.0254 37.9143 61.0074C38.6994 54.7796 39.5961 48.4888 41.315 42.448C42.0641 39.8148 43.3931 34.015 47.1273 34.9314C47.6417 35.0577 48.478 35.8194 48.6269 35.8284C48.8693 35.8426 49.7775 35.1711 50.6408 35.2562C52.0891 35.4005 52.606 36.7461 53.0088 36.884C53.7567 37.1405 54.2801 36.6546 55.237 37.4807C56.0708 38.1999 55.8707 38.9049 56.2517 39.5223C56.3402 39.6666 57.0085 40.0017 57.2818 40.3239C57.8744 41.0186 58.2028 42.3719 58.1874 43.278C58.1733 44.0706 57.6115 45.4922 57.6717 46.1096C57.7462 46.87 58.9225 48.5816 58.8096 49.6165L60.7171 67.5225C60.6683 67.7854 59.138 67.8601 58.8237 67.8395L56.8649 49.3794C56.5326 47.682 55.5988 46.3325 54.4789 45.0643C54.4237 44.8542 55.0279 43.644 55.2293 43.5357C55.5847 43.345 55.7437 44.0642 56.1286 43.9946C56.0657 43.1349 56.4274 41.8396 55.441 41.4272C54.6354 41.569 52.9024 45.8003 52.5688 46.6689C51.0629 50.5922 49.0027 57.2504 48.4588 61.3592C48.4229 61.6324 48.3498 61.6904 48.6859 61.6518L50.9962 54.4342V68.096H45.0954C46.1998 62.4277 47.362 56.749 49.0078 51.2121C49.8096 48.5146 50.6819 45.7075 51.9121 43.1749C52.4778 42.0085 53.1717 40.5998 54.2685 39.8754C54.1736 38.6149 53.4065 38.6394 52.5457 39.3006C50.5895 40.8034 48.4781 48.695 47.7982 51.2856C46.3512 56.8006 45.2223 62.4406 44.4527 68.0947H42.4002C43.624 60.6632 44.9722 53.1647 47.2722 45.9884C48.1586 43.2238 49.172 39.9334 51.2489 37.8713C49.9379 36.0591 48.4704 39.0982 47.9342 40.2092C46.9182 42.3178 46.1447 45.0437 45.5148 47.3159C43.6343 54.1017 42.6234 61.1079 41.7588 68.0947H39.8347C40.6326 60.7689 41.746 53.4057 43.7471 46.3132C44.6028 43.2831 45.552 40.1177 47.2568 37.4601C46.8874 36.6327 46.0946 36.6481 45.4725 37.2204C44.3039 38.294 42.6247 45.1197 42.2065 46.9563C40.6325 53.8555 39.7474 61.0383 39.1933 68.0947H15.0808V52.0486L15.2732 51.8553H37.9785V51.8565ZM21.623 55.2075H18.5443V57.0119H21.623V55.2075Z" fill="black"/>
<path d="M32.1149 0.0824439C37.7476 -0.216569 45.0852 2.16135 46.0883 8.52181C46.5206 11.2683 46.3141 14.3113 46.5321 17.0978C48.7257 18.5387 48.6872 21.8317 46.9426 23.6168C46.6155 23.9519 45.7355 24.3656 45.5765 24.693C45.3148 25.2356 45.148 26.7848 44.9312 27.5246C41.5691 39.0082 24.8493 39.1693 21.3011 27.8829C21.0907 27.2127 20.7187 24.8438 20.5289 24.5344C20.4711 24.4404 19.2474 23.7405 18.8215 23.1567C17.2757 21.0417 17.7106 18.7024 19.5668 16.9895C20.0504 13.1952 19.1435 8.42386 21.3357 5.10508C23.528 1.7863 28.3359 0.283504 32.1149 0.0824439ZM31.3453 14.3886C28.6681 14.5098 25.7421 14.8475 23.1611 15.5744C22.7532 15.6891 21.6898 15.867 21.8091 16.425C21.8399 16.572 22.072 16.8723 22.2247 16.9096C22.462 16.9689 24.2322 16.4134 24.6774 16.3245C30.709 15.1156 36.03 15.2303 42.0437 16.4534C42.5658 16.5591 43.7562 17.0604 44.1244 16.7898C44.3706 16.6093 44.422 16.2807 44.2667 16.0229C44.0846 15.7187 40.3555 15.0034 39.7372 14.9029C37.0267 14.4647 34.0891 14.2636 31.3466 14.3874L31.3453 14.3886ZM45.6137 18.9911C43.8768 22.1011 40.8622 20.8445 38.0901 20.5532C34.6831 20.1949 31.5236 20.2013 28.1178 20.5532C25.923 20.78 23.6588 21.7338 21.6577 20.3083C21.2908 20.0467 20.4904 19.0104 20.4019 18.9911C20.0119 18.9035 19.7746 20.066 19.7695 20.3431C19.7438 21.8884 20.7533 22.8847 22.2516 22.9981C22.5595 27.9576 24.7107 32.3629 29.7046 33.8773C35.5207 35.6404 41.5395 32.7766 43.2097 26.826C43.3765 26.2331 43.8486 23.167 43.973 23.0188C44.0705 22.9028 44.9479 22.8061 45.3456 22.5277C46.0998 21.998 46.5334 20.7439 46.3513 19.8598C46.3064 19.6446 45.8677 18.812 45.6137 18.9937V18.9911Z" fill="black"/>
<path d="M12.6436 45.7991V48.5057L11.2543 49.3653C11.2954 49.8306 11.0349 51.8386 11.4442 51.9675C11.6456 52.0306 11.9316 51.9585 12.1651 52.0165C12.9643 52.2162 13.4645 52.6777 13.6403 53.4986L13.6377 64.6472C13.4222 66.0585 12.2754 66.1061 12.0663 66.5482C11.9239 66.8485 11.879 67.8796 11.7123 68.3835C10.9246 70.7589 8.3116 71.6959 6.10393 70.6094C4.70057 69.9186 4.27854 68.4016 4.02326 66.9645C1.62702 66.7132 0.806044 63.9911 0.494328 61.9393C0.203136 60.0228 0.141563 52.6416 1.30248 51.2225L4.04892 48.8292C4.04892 48.7415 3.41009 48.4386 3.41009 48.3136V45.8004H12.6461L12.6436 45.7991ZM4.56203 50.9545C4.33883 50.899 4.30547 51.0473 4.17591 51.1465C2.70584 52.2833 2.47623 52.6287 2.25302 54.4988C1.96824 56.8935 1.93104 62.0192 3.0445 64.1407C3.30619 64.6381 3.60123 64.9539 4.1695 65.0725C5.53951 65.3586 9.94843 65.2787 11.2068 64.7825C11.6597 64.6033 11.8854 64.3623 11.8739 63.8416H7.76899V61.9084H11.8739V60.4906H7.76899V58.5574H11.8739V57.1396H7.76899V55.2064H11.8739V53.9175H4.56203V50.9532V50.9545Z" fill="black"/>
<path d="M60.4914 9.71143L58.9521 15.2535H63.3135L59.4652 25.0487H63.057L55.554 31.4942L52.1533 25.0487H55.3603L56.1299 20.9244H52.5382L54.5906 9.71143H60.4914Z" fill="black"/>
<path d="M17.3898 41.5458C15.449 42.2908 13.6043 43.3528 12.0663 44.7654L10.7219 43.4134C15.0026 39.6577 20.7366 38.0969 26.3026 37.553L26.5694 37.6716L33.0962 44.505L39.6435 37.5388L41.551 37.6986L41.7601 37.8713L41.1046 39.4669L40.2798 39.6048L33.0872 47.2077L25.8575 39.5468C25.4418 39.3381 23.2701 39.8085 22.7775 40.0637V50.8255H17.3898V41.5458Z" fill="black"/>
<path d="M6.35798 38.646C6.1925 37.8353 4.84173 36.2062 4.69806 35.2872C4.44279 33.6543 5.21117 31.4903 5.34458 29.8316L10.8477 29.8174C10.8439 31.7545 11.9124 33.9469 11.2133 35.7925C11.0286 36.281 9.69321 38.6086 9.69321 38.7762V45.0271H6.35798V38.6473V38.646Z" fill="black"/>
</g>
<defs>
<clipPath id="clip0_1_93">
<rect width="63" height="71" fill="white" transform="translate(0.313477 0.0578613)"/>
</clipPath>
</defs>
</svg>
