<svg width="420" height="87" viewBox="0 0 420 87" fill="none" xmlns="http://www.w3.org/2000/svg">
<g clip-path="url(#clip0_1_8)">
<path d="M218.654 0.377289L193.102 38.9691L202.258 35.5214L195.42 51.312L204.029 46.3494L187.401 86.3773L216.44 39.1933L206.608 42.0654L217.079 24.5116L204.594 31.3829L218.654 0.377289Z" fill="#E8272D"/>
<path d="M229.757 45.4466C235.19 57.1471 230.974 69.3506 217.796 67.6358C207.935 66.1755 199.551 59.7041 192.725 52.1542C186.112 44.3619 180.271 34.9033 179.803 23.7845C179.559 9.01789 192.64 7.6303 201.893 13.6654C183.033 7.00013 178.501 20.6882 187.487 37.1877C192.116 45.6102 198.608 53.0328 206.146 58.3105C219.184 67.9873 234.904 67.1874 229.757 45.4466Z" fill="#E8272D"/>
<path d="M211.573 25.8689L214.761 24.1117C213.489 22.8816 212.175 21.694 210.788 20.6154L209.316 23.8693C210.088 24.5055 210.837 25.1781 211.579 25.8689H211.573Z" fill="#0B7C40"/>
<path d="M196.722 17.0465C199.235 17.7433 201.65 18.8037 203.95 20.1307L205.817 17.307C203.122 15.8164 200.245 14.7015 197.166 14.1441C186.635 12.2475 182.388 21.797 186.708 31.5404C184.585 22.8695 187.328 14.6591 196.722 17.0465Z" fill="#0B7C40"/>
<path d="M228.455 49.7305C227.658 40.7809 222.889 33.2128 217.486 26.9111C217.395 26.8141 217.298 26.7172 217.212 26.6202L215.326 29.7893C217.803 32.6614 220.011 35.8001 221.897 39.0358C229.155 51.5362 227.293 64.4183 211.408 59.4315C219.39 64.2305 229.459 61.7461 228.462 49.7365L228.455 49.7305Z" fill="#0B7C40"/>
<path d="M0.0304194 47.9672C0.86391 47.2704 1.60006 46.5615 2.23278 45.8465C2.8655 45.1315 3.41305 44.3559 3.88151 43.5257L12.5693 27.7957H16.5055L19.4501 43.3258C19.6266 44.2953 19.8517 45.1315 20.1376 45.8343C20.4175 46.5433 20.8129 47.2522 21.3179 47.9672L21.2875 48.1126H12.3138L12.3442 47.9672C12.9282 47.3674 13.3419 46.6645 13.5853 45.8646C13.8286 45.0648 13.8651 44.2165 13.6887 43.3258L13.3358 41.5868H5.99261L5.23213 42.9804C4.66633 44.0044 4.39864 44.9315 4.42906 45.7495C4.45948 46.5675 4.69675 47.3128 5.14087 47.9733L5.11045 48.1187H0L0.0304194 47.9733V47.9672ZM6.46715 40.7082H13.1716L11.4498 31.6798L6.46715 40.7082Z" fill="#28245F"/>
<path d="M22.7598 47.9672C23.283 47.4037 23.7088 46.7675 24.0252 46.0525C24.3476 45.3375 24.6032 44.4771 24.7979 43.4712L26.9515 32.4432C27.1462 31.4737 27.2253 30.6254 27.1827 29.8862C27.1462 29.153 26.9698 28.5047 26.6595 27.9412L26.6899 27.7957H34.8484L34.818 27.9412C34.2948 28.5047 33.8689 29.1409 33.5525 29.8559C33.2301 30.5709 32.9746 31.4313 32.7799 32.4372L29.8961 47.2401H30.7722C32.3054 47.2401 33.6377 47.0099 34.7632 46.5433C35.8888 46.0767 36.8683 45.4284 37.6896 44.5982C38.517 43.7681 39.3444 42.7138 40.184 41.4353H40.476L38.3223 48.1126H22.7293L22.7598 47.9672Z" fill="#28245F"/>
<path d="M39.5208 47.9369C40.2022 47.3371 40.7984 46.616 41.3156 45.7737C41.8327 44.9315 42.1734 44.065 42.3498 43.1743L44.3879 32.722C44.5644 31.8312 44.5522 30.9708 44.3575 30.1407C44.1628 29.3106 43.8525 28.5834 43.4267 27.9654L43.4571 27.7897H50.3927L53.3069 40.9384L61.3193 27.7897H67.9629L67.9325 27.9351C67.4093 28.4986 66.9834 29.1348 66.6671 29.8498C66.3446 30.5648 66.0891 31.4253 65.8944 32.4311L63.7407 43.4591C63.546 44.4286 63.4669 45.2769 63.5095 46.0101C63.546 46.7432 63.7225 47.3916 64.0327 47.9551L64.0023 48.1005H55.8439L55.8743 47.9551C56.3975 47.3916 56.8234 46.7554 57.1397 46.0404C57.4622 45.3254 57.7177 44.4649 57.9124 43.4591L60.2729 31.4131L50.1007 48.1005H49.3706L45.6716 31.4131L43.3719 43.1682C43.1955 44.059 43.2077 44.9194 43.4023 45.7495C43.597 46.5796 43.9073 47.3068 44.3332 47.9248L44.3027 48.1005H39.4965L39.5269 47.9248L39.5208 47.9369Z" fill="#28245F"/>
<path d="M67.3789 47.9672C67.9021 47.4037 68.328 46.7675 68.6443 46.0525C68.9668 45.3375 69.2223 44.4771 69.417 43.4712L71.5707 32.4432C71.7653 31.4737 71.8444 30.6254 71.8018 29.8862C71.7653 29.153 71.5889 28.5047 71.2786 27.9412L71.3091 27.7957H79.4675L79.4371 27.9412C78.9139 28.5047 78.488 29.1409 78.1717 29.8559C77.8492 30.5709 77.5937 31.4313 77.399 32.4372L75.2453 43.4651C75.0506 44.4346 74.9715 45.2829 75.0141 46.0161C75.0506 46.7493 75.2271 47.3976 75.5373 47.9612L75.5069 48.1066H67.3484L67.3789 47.9612V47.9672Z" fill="#28245F"/>
<path d="M89.8223 48.5489C87.8998 48.5489 86.2024 48.1914 84.7362 47.4764C83.2699 46.7614 82.1262 45.7374 81.3109 44.4165C80.4957 43.0895 80.0881 41.5504 80.0881 39.7871C80.0881 37.1574 80.6417 34.9033 81.749 33.0249C82.8562 31.1465 84.2677 29.7347 85.9773 28.7895C87.6868 27.8442 89.4451 27.3655 91.252 27.3655C92.8034 27.3655 94.1783 27.5109 95.3586 27.8018C96.5449 28.0926 97.5427 28.5107 98.3579 29.05L97.1655 35.1154H96.8735C96.4659 33.1219 95.7784 31.4798 94.8171 30.1952C93.8559 28.9107 92.6878 28.2623 91.3067 28.2623C90.163 28.2623 89.1774 28.8016 88.3621 29.8741C87.5469 30.9466 86.9324 32.3221 86.5248 33.9944C86.1172 35.6668 85.9103 37.3937 85.9103 39.1751C85.9103 40.9566 86.1172 42.4351 86.537 43.6166C86.9568 44.7982 87.5408 45.6707 88.3013 46.2403C89.0618 46.8099 89.9744 47.0947 91.039 47.0947H91.4771L92.4079 42.3078C92.6026 41.3383 92.6452 40.49 92.5418 39.7568C92.4383 39.0237 92.1463 38.3753 91.6839 37.8118L91.7144 37.6664H99.7268L99.6964 37.8118C99.1549 38.3753 98.729 38.9994 98.4309 39.6841C98.1328 40.3688 97.8712 41.2474 97.6583 42.3078L96.8431 46.3736C96.0461 46.9917 95.0605 47.5128 93.8863 47.9248C92.7121 48.3429 91.3554 48.5489 89.8223 48.5489Z" fill="#28245F"/>
<path d="M99.9093 47.9672C100.433 47.4037 100.858 46.7675 101.175 46.0525C101.497 45.3375 101.753 44.4771 101.947 43.4712L104.101 32.4432C104.296 31.4737 104.375 30.6254 104.332 29.8862C104.296 29.153 104.119 28.5047 103.809 27.9412L103.84 27.7957H111.998L111.968 27.9412C111.444 28.5047 111.018 29.1409 110.702 29.8559C110.38 30.5709 110.124 31.4313 109.929 32.4372L108.999 37.224H115.411L116.342 32.4372C116.537 31.4677 116.616 30.6194 116.573 29.8801C116.537 29.147 116.36 28.4986 116.05 27.9351L116.08 27.7897H124.239L124.208 27.9351C123.685 28.4986 123.259 29.1348 122.943 29.8498C122.62 30.5648 122.365 31.4253 122.17 32.4311L120.017 43.4591C119.822 44.4286 119.743 45.2769 119.785 46.0101C119.822 46.7432 119.998 47.3916 120.309 47.9551L120.278 48.1005H112.12L112.15 47.9551C112.673 47.3916 113.099 46.7554 113.416 46.0404C113.738 45.3254 113.993 44.4649 114.188 43.4591L115.235 38.0905H108.822L107.776 43.4591C107.581 44.4286 107.502 45.2769 107.545 46.0101C107.581 46.7432 107.758 47.3916 108.068 47.9551L108.037 48.1005H99.8789L99.9093 47.9551V47.9672Z" fill="#28245F"/>
<path d="M127.682 47.9672C128.205 47.4037 128.631 46.7675 128.948 46.0525C129.27 45.3375 129.526 44.4771 129.72 43.4712L132.604 28.6683H132.397C131.564 28.6683 130.718 28.8682 129.86 29.2803C129.002 29.6862 128.126 30.3285 127.22 31.2132C126.313 32.0979 125.419 33.231 124.525 34.6246H124.233L126.447 27.8018H144.893L144.632 34.6246H144.34C144.066 33.443 143.671 32.4069 143.147 31.5162C142.624 30.6254 141.979 29.9286 141.225 29.4257C140.464 28.9228 139.6 28.6683 138.633 28.6683H138.432L135.549 43.4712C135.354 44.4407 135.275 45.289 135.317 46.0222C135.354 46.7554 135.53 47.4037 135.841 47.9672L135.81 48.1127H127.652L127.682 47.9672Z" fill="#28245F"/>
<path d="M147.704 47.9672C148.227 47.4037 148.653 46.7675 148.97 46.0525C149.292 45.3375 149.548 44.4771 149.742 43.4712L150.412 40.0477L148.051 32.7341C147.741 31.7888 147.388 30.9345 146.986 30.1831C146.591 29.4257 146.086 28.6865 145.484 27.9472L145.514 27.8018H154.81L154.78 27.9472C154.257 28.5653 153.91 29.2803 153.746 30.0801C153.581 30.8799 153.654 31.7706 153.965 32.7341L155.832 38.6843L159.385 33.1098C160.067 32.0433 160.493 31.0617 160.669 30.1649C160.845 29.2621 160.766 28.5229 160.438 27.9412L160.468 27.7957H165.627L165.597 27.9412C163.461 29.4136 161.837 31.0072 160.73 32.728L156.301 39.6962L155.571 43.4712C155.376 44.4165 155.303 45.2587 155.352 45.9979C155.4 46.7311 155.619 47.3916 156.009 47.9733L155.978 48.1187H147.674L147.704 47.9733V47.9672Z" fill="#28245F"/>
<path d="M249.274 47.9672C249.798 47.4037 250.223 46.7675 250.54 46.0525C250.862 45.3375 251.118 44.4771 251.312 43.4712L253.466 32.4432C253.661 31.4737 253.74 30.6254 253.697 29.8862C253.661 29.153 253.484 28.5047 253.174 27.9412L253.205 27.7957H268.274L268.043 34.1823H267.751C267.477 32.9825 267.082 31.9888 266.559 31.195C266.035 30.4012 265.293 29.7832 264.326 29.3348C263.365 28.8925 262.105 28.6683 260.554 28.6683H260.031L258.309 37.5209H259.185C260.469 37.5209 261.558 37.218 262.452 36.606C263.346 35.994 264.095 35.0912 264.697 33.8914H264.989L263.413 42.017H263.121C262.963 40.8172 262.562 39.9144 261.911 39.3024C261.26 38.6904 260.292 38.3874 259.009 38.3874H258.133L256.411 47.2401H257.579C259.83 47.2401 261.667 46.7796 263.085 45.8586C264.502 44.9376 265.786 43.5621 266.93 41.7201H267.222L265.123 48.1066H249.238L249.268 47.9612L249.274 47.9672Z" fill="#28245F"/>
<path d="M267.49 47.9369C268.171 47.3371 268.767 46.616 269.284 45.7737C269.801 44.9315 270.142 44.065 270.319 43.1743L272.357 32.722C272.533 31.8312 272.521 30.9708 272.326 30.1407C272.132 29.3106 271.821 28.5834 271.395 27.9654L271.426 27.7897H277.631L285.212 40.1265L286.642 32.722C286.818 31.8312 286.806 30.9708 286.611 30.1407C286.416 29.3106 286.106 28.5834 285.68 27.9654L285.711 27.7897H290.517L290.487 27.9654C289.805 28.5653 289.209 29.2863 288.692 30.1286C288.175 30.9708 287.834 31.8373 287.658 32.728L284.658 48.1126H283.49L273.525 31.8858L271.341 43.1743C271.164 44.065 271.176 44.9254 271.371 45.7556C271.566 46.5857 271.876 47.3128 272.302 47.9309L272.271 48.1066H267.465L267.496 47.9309L267.49 47.9369Z" fill="#28245F"/>
<path d="M299.837 48.5489C297.915 48.5489 296.218 48.1914 294.751 47.4764C293.285 46.7614 292.141 45.7374 291.326 44.4165C290.511 43.0895 290.103 41.5504 290.103 39.7871C290.103 37.1574 290.657 34.9033 291.764 33.0249C292.871 31.1465 294.283 29.7347 295.992 28.7895C297.702 27.8442 299.46 27.3655 301.267 27.3655C302.819 27.3655 304.194 27.5109 305.374 27.8018C306.554 28.0926 307.558 28.5107 308.373 29.05L307.181 35.1154H306.889C306.481 33.1219 305.794 31.4798 304.832 30.1952C303.871 28.9107 302.697 28.2623 301.322 28.2623C300.178 28.2623 299.193 28.8016 298.377 29.8741C297.562 30.9466 296.948 32.3221 296.54 33.9944C296.132 35.6668 295.926 37.3937 295.926 39.1751C295.926 40.9566 296.132 42.4351 296.552 43.6166C296.972 44.7982 297.556 45.6707 298.316 46.2403C299.077 46.8099 299.99 47.0947 301.054 47.0947H301.492L302.423 42.3078C302.618 41.3383 302.66 40.49 302.551 39.7568C302.441 39.0237 302.155 38.3753 301.693 37.8118L301.723 37.6664H309.736L309.706 37.8118C309.164 38.3753 308.738 38.9994 308.44 39.6841C308.142 40.3688 307.88 41.2474 307.667 42.3078L306.852 46.3736C306.055 46.9917 305.07 47.5128 303.895 47.9248C302.721 48.3429 301.365 48.5489 299.831 48.5489H299.837Z" fill="#28245F"/>
<path d="M310.071 47.9672C310.594 47.4037 311.02 46.7675 311.336 46.0525C311.658 45.3375 311.914 44.4771 312.109 43.4712L314.268 32.4432C314.463 31.4737 314.542 30.6254 314.5 29.8862C314.463 29.153 314.287 28.5047 313.976 27.9412L314.007 27.7957H322.165L322.135 27.9412C321.612 28.5047 321.186 29.1409 320.869 29.8559C320.547 30.5709 320.291 31.4313 320.097 32.4372L317.943 43.4651C317.748 44.4346 317.669 45.2829 317.712 46.0161C317.748 46.7493 317.925 47.3976 318.235 47.9612L318.205 48.1066H310.046L310.077 47.9612L310.071 47.9672Z" fill="#28245F"/>
<path d="M320.882 47.9369C321.563 47.3371 322.159 46.616 322.676 45.7737C323.194 44.9315 323.534 44.065 323.711 43.1743L325.749 32.722C325.925 31.8312 325.913 30.9708 325.718 30.1407C325.524 29.3106 325.213 28.5834 324.787 27.9654L324.818 27.7897H331.023L338.604 40.1265L340.034 32.722C340.21 31.8312 340.198 30.9708 340.003 30.1407C339.809 29.3106 339.498 28.5834 339.072 27.9654L339.103 27.7897H343.909L343.879 27.9654C343.197 28.5653 342.601 29.2863 342.084 30.1286C341.567 30.9708 341.226 31.8373 341.05 32.728L338.05 48.1126H336.882L326.917 31.8858L324.733 43.1743C324.556 44.065 324.568 44.9254 324.763 45.7556C324.958 46.5857 325.268 47.3128 325.694 47.9309L325.664 48.1066H320.857L320.888 47.9309L320.882 47.9369Z" fill="#28245F"/>
<path d="M342.303 47.9672C342.826 47.4037 343.252 46.7675 343.568 46.0525C343.891 45.3375 344.146 44.4771 344.341 43.4712L346.495 32.4432C346.689 31.4737 346.769 30.6254 346.726 29.8862C346.689 29.153 346.513 28.5047 346.203 27.9412L346.233 27.7957H361.303L361.072 34.1823H360.78C360.506 32.9825 360.11 31.9888 359.587 31.195C359.064 30.4012 358.322 29.7832 357.354 29.3348C356.393 28.8925 355.134 28.6683 353.582 28.6683H353.059L351.338 37.5209H352.214C353.497 37.5209 354.586 37.218 355.481 36.606C356.375 35.994 357.123 35.0912 357.726 33.8914H358.018L356.442 42.017H356.15C355.992 40.8172 355.59 39.9144 354.939 39.3024C354.288 38.6904 353.321 38.3874 352.037 38.3874H351.161L349.439 47.2401H350.607C352.858 47.2401 354.696 46.7796 356.113 45.8586C357.531 44.9376 358.815 43.5621 359.958 41.7201H360.25L358.151 48.1066H342.266L342.297 47.9612L342.303 47.9672Z" fill="#28245F"/>
<path d="M361.218 47.9672C361.741 47.4037 362.167 46.7675 362.483 46.0525C362.806 45.3375 363.061 44.4771 363.256 43.4712L365.409 32.4432C365.604 31.4737 365.683 30.6254 365.641 29.8862C365.604 29.153 365.428 28.5047 365.117 27.9412L365.148 27.7957H380.218L379.986 34.1823H379.694C379.421 32.9825 379.025 31.9888 378.502 31.195C377.979 30.4012 377.236 29.7832 376.269 29.3348C375.308 28.8925 374.049 28.6683 372.497 28.6683H371.974L370.252 37.5209H371.128C372.412 37.5209 373.501 37.218 374.395 36.606C375.29 35.994 376.038 35.0912 376.64 33.8914H376.932L375.357 42.017H375.065C374.906 40.8172 374.505 39.9144 373.854 39.3024C373.203 38.6904 372.236 38.3874 370.952 38.3874H370.076L368.354 47.2401H369.522C371.773 47.2401 373.611 46.7796 375.028 45.8586C376.446 44.9376 377.729 43.5621 378.873 41.7201H379.165L377.066 48.1066H361.181L361.212 47.9612L361.218 47.9672Z" fill="#28245F"/>
<path d="M397.094 48.4035C395.871 48.4035 394.886 48.1005 394.137 47.5007C393.389 46.9008 392.836 46.1252 392.477 45.1799C392.118 44.2347 391.886 43.1682 391.789 41.9867C391.728 41.2899 391.637 40.7021 391.509 40.2295C391.381 39.7568 391.187 39.3751 390.925 39.0964C390.664 38.8177 390.311 38.6783 389.861 38.6783H388.93L387.999 43.4652C387.822 44.3559 387.749 45.186 387.78 45.9616C387.81 46.7372 387.981 47.4037 388.291 47.9672L388.26 48.1127H380.102L380.132 47.9672C380.656 47.4037 381.081 46.7675 381.398 46.0525C381.72 45.3375 381.976 44.4771 382.17 43.4712L384.324 32.4432C384.501 31.5343 384.574 30.6982 384.543 29.9347C384.513 29.1712 384.342 28.5047 384.032 27.9472L384.063 27.8018H393.389C394.77 27.8018 396.005 27.9593 397.106 28.2684C398.201 28.5774 399.09 29.0803 399.759 29.7771C400.428 30.474 400.763 31.3707 400.763 32.4796C400.763 33.6793 400.459 34.7034 399.856 35.5396C399.254 36.3818 398.445 37.0302 397.423 37.4846C396.401 37.939 395.251 38.2057 393.967 38.2844L393.937 38.4299C394.886 38.5268 395.658 38.8358 396.255 39.3569C396.845 39.878 397.283 40.4961 397.569 41.2171C397.849 41.9321 398.098 42.7926 398.311 43.7984C398.487 44.671 398.64 45.3193 398.761 45.7435C398.889 46.1676 399.035 46.4766 399.199 46.6705C399.363 46.8644 399.583 46.9614 399.856 46.9614C400.148 46.9614 400.41 46.8644 400.641 46.6705L400.872 46.9614C400.526 47.3674 400.033 47.7127 399.4 47.9915C398.767 48.2702 397.995 48.4156 397.082 48.4156L397.094 48.4035ZM390.566 37.8057C391.461 37.8057 392.227 37.5088 392.866 36.9211C393.505 36.3333 393.998 35.5456 394.338 34.5701C394.679 33.5945 394.849 32.5644 394.849 31.4798C394.849 30.6254 394.649 29.9347 394.235 29.3893C393.827 28.8501 393.207 28.5774 392.367 28.5774C392.02 28.5774 391.734 28.6137 391.521 28.6804C391.308 28.7471 391.071 28.8622 390.822 29.0137L389.1 37.8118H390.56L390.566 37.8057Z" fill="#28245F"/>
<path d="M411.142 48.5489C409.219 48.5489 407.516 48.3005 406.025 47.8097C404.541 47.3189 403.415 46.7796 402.661 46.1979L403.945 39.5811H404.237C404.644 41.9443 405.441 43.8832 406.628 45.3981C407.814 46.919 409.365 47.6764 411.294 47.6764C412.054 47.6764 412.681 47.5431 413.186 47.2825C413.691 47.022 414.062 46.6705 414.293 46.2221C414.524 45.7798 414.64 45.2769 414.64 44.7134C414.64 44.1499 414.506 43.6954 414.232 43.2894C413.959 42.8835 413.575 42.4896 413.083 42.1139C412.59 41.7382 411.787 41.199 410.679 40.5021C409.341 39.6478 408.27 38.9085 407.473 38.2784C406.676 37.6482 406.013 36.915 405.49 36.0728C404.967 35.2305 404.705 34.2792 404.705 33.2128C404.705 31.9343 405.094 30.8557 405.873 29.9771C406.652 29.0985 407.668 28.438 408.933 28.0018C410.199 27.5655 411.568 27.3473 413.04 27.3473C414.421 27.3473 415.729 27.4988 416.976 27.7957C418.217 28.0987 419.227 28.5047 420.006 29.0318L418.814 35.2123H418.522C417.998 32.9886 417.226 31.2677 416.204 30.0437C415.182 28.8258 413.904 28.2138 412.371 28.2138C411.416 28.2138 410.661 28.4441 410.095 28.8985C409.53 29.353 409.25 30.0074 409.25 30.8557C409.25 31.3586 409.377 31.7949 409.627 32.1645C409.882 32.5341 410.278 32.9219 410.819 33.3279C411.361 33.7339 412.298 34.3519 413.618 35.1881C414.823 35.9455 415.796 36.6181 416.544 37.2059C417.293 37.7936 417.931 38.5026 418.467 39.3266C419.002 40.1507 419.27 41.0717 419.27 42.1018C419.27 43.5924 418.917 44.8164 418.223 45.7738C417.53 46.7311 416.563 47.434 415.34 47.8763C414.117 48.3187 412.718 48.5429 411.142 48.5429V48.5489Z" fill="#28245F"/>
</g>
<defs>
<clipPath id="clip0_1_8">
<rect width="420" height="86" fill="white" transform="translate(0 0.377289)"/>
</clipPath>
</defs>
</svg>
