<svg width="498" height="102" viewBox="0 0 498 102" fill="none" xmlns="http://www.w3.org/2000/svg">
<g clip-path="url(#clip0_1_202)">
<path d="M259.262 0L228.964 45.7717L239.821 41.6825L231.712 60.4109L241.92 54.5251L222.205 102L256.636 46.0376L244.978 49.4441L257.393 28.6244L242.591 36.774L259.262 0Z" fill="#E8272D"/>
<path d="M272.427 53.4544C278.868 67.3318 273.869 81.8057 258.244 79.7719C246.551 78.0399 236.61 70.3645 228.517 61.41C220.675 52.168 213.75 40.9496 213.195 27.7621C212.906 10.2483 228.416 8.60253 239.388 15.7604C217.025 7.85512 211.651 24.0897 222.306 43.659C227.795 53.6484 235.492 62.452 244.43 68.7116C259.889 80.1887 278.529 79.24 272.427 53.4544Z" fill="#E8272D"/>
<path d="M250.865 30.2342L254.645 28.1501C253.137 26.6912 251.579 25.2826 249.934 24.0034L248.188 27.8626C249.105 28.6172 249.992 29.415 250.872 30.2342H250.865Z" fill="#0B7C40"/>
<path d="M233.256 19.7706C236.235 20.597 239.099 21.8547 241.826 23.4286L244.041 20.0796C240.845 18.3117 237.433 16.9893 233.783 16.3282C221.296 14.0787 216.261 25.4049 221.382 36.961C218.865 26.6769 222.118 16.939 233.256 19.7706Z" fill="#0B7C40"/>
<path d="M270.883 58.5353C269.938 47.9207 264.282 38.9446 257.877 31.4704C257.768 31.3555 257.653 31.2405 257.552 31.1255L255.316 34.8841C258.252 38.2906 260.87 42.0132 263.106 45.8509C271.712 60.677 269.505 75.9558 250.67 70.0412C260.134 75.733 272.073 72.7864 270.89 58.5425L270.883 58.5353Z" fill="#0B7C40"/>
<path d="M0.0360687 56.4439C1.02435 55.6174 1.89721 54.7766 2.64744 53.9285C3.39767 53.0805 4.0469 52.1606 4.60236 51.1761L14.9036 32.5195H19.5709L23.0623 50.9389C23.2715 52.0888 23.5384 53.0805 23.8774 53.9142C24.2093 54.755 24.6782 55.5958 25.2769 56.4439L25.2408 56.6163H14.6006L14.6367 56.4439C15.3292 55.7324 15.8197 54.8987 16.1083 53.9501C16.3968 53.0015 16.4401 51.9953 16.2309 50.9389L15.8125 48.8763H7.10553L6.20381 50.5293C5.53293 51.7438 5.21553 52.8434 5.2516 53.8135C5.28767 54.7837 5.569 55.6677 6.0956 56.451L6.05953 56.6235H0L0.0360687 56.451V56.4439ZM7.6682 47.8343H15.6177L13.5762 37.1262L7.6682 47.8343Z" fill="white"/>
<path d="M26.9866 56.4439C27.6069 55.7755 28.1119 55.0209 28.487 54.1729C28.8694 53.3249 29.1723 52.3044 29.4032 51.1114L31.9568 38.0317C32.1877 36.8818 32.2814 35.8757 32.231 34.9989C32.1877 34.1293 31.9785 33.3604 31.6106 32.692L31.6466 32.5195H41.3203L41.2842 32.692C40.6638 33.3604 40.1588 34.115 39.7837 34.963C39.4014 35.811 39.0984 36.8315 38.8676 38.0245L35.4483 55.5815H36.4871C38.3049 55.5815 39.8847 55.3084 41.2193 54.755C42.5538 54.2016 43.7152 53.4327 44.6891 52.4481C45.6701 51.4635 46.6512 50.213 47.6467 48.6967H47.993L45.4393 56.6163H26.9505L26.9866 56.4439Z" fill="white"/>
<path d="M46.8604 56.4078C47.6683 55.6963 48.3753 54.8411 48.9885 53.8422C49.6016 52.8432 50.0056 51.8155 50.2148 50.7591L52.6314 38.3621C52.8406 37.3057 52.8262 36.2852 52.5953 35.3006C52.3645 34.3161 51.9966 33.4537 51.4916 32.7206L51.5277 32.5122H59.7513L63.2067 48.1072L72.7072 32.5122H80.5846L80.5485 32.6847C79.9282 33.353 79.4232 34.1076 79.0481 34.9557C78.6657 35.8037 78.3628 36.8242 78.1319 38.0172L75.5783 51.0969C75.3474 52.2467 75.2536 53.2529 75.3041 54.1224C75.3474 54.992 75.5566 55.761 75.9245 56.4293L75.8885 56.6018H66.2148L66.2509 56.4293C66.8713 55.761 67.3763 55.0064 67.7514 54.1584C68.1337 53.3103 68.4367 52.2898 68.6675 51.0969L71.4664 36.8098L59.4051 56.6018H58.5394L54.1535 36.8098L51.4267 50.7519C51.2175 51.8083 51.2319 52.8288 51.4628 53.8134C51.6936 54.798 52.0615 55.6604 52.5665 56.3934L52.5304 56.6018H46.8315L46.8676 56.3934L46.8604 56.4078Z" fill="white"/>
<path d="M79.8921 56.4439C80.5125 55.7755 81.0174 55.0209 81.3925 54.1729C81.7749 53.3249 82.0778 52.3044 82.3087 51.1114L84.8624 38.0317C85.0932 36.8818 85.187 35.8757 85.1365 34.9989C85.0932 34.1293 84.884 33.3604 84.5161 32.692L84.5522 32.5195H94.2258L94.1897 32.692C93.5693 33.3604 93.0644 34.115 92.6893 34.963C92.3069 35.811 92.0039 36.8315 91.7731 38.0245L89.2194 51.1042C88.9886 52.254 88.8948 53.2602 88.9453 54.1298C88.9886 54.9993 89.1978 55.7683 89.5657 56.4367L89.5296 56.6092H79.856L79.8921 56.4367V56.4439Z" fill="white"/>
<path d="M106.504 57.1338C104.224 57.1338 102.211 56.7098 100.473 55.8617C98.7343 55.0137 97.3781 53.7992 96.4115 52.2325C95.4449 50.6586 94.9615 48.8332 94.9615 46.7419C94.9615 43.6229 95.618 40.9495 96.9309 38.7216C98.2438 36.4937 99.9174 34.8193 101.944 33.6981C103.972 32.577 106.056 32.0093 108.199 32.0093C110.038 32.0093 111.669 32.1818 113.068 32.5267C114.475 32.8717 115.658 33.3676 116.624 34.0072L115.21 41.201H114.864C114.381 38.8366 113.566 36.889 112.426 35.3654C111.286 33.8419 109.901 33.0729 108.264 33.0729C106.907 33.0729 105.739 33.7125 104.772 34.9845C103.806 36.2566 103.077 37.8879 102.594 39.8715C102.11 41.855 101.865 43.9032 101.865 46.016C101.865 48.1289 102.11 49.8825 102.608 51.2838C103.106 52.6852 103.798 53.7201 104.7 54.3957C105.602 55.0712 106.684 55.409 107.946 55.409H108.466L109.569 49.7315C109.8 48.5817 109.851 47.5755 109.728 46.706C109.605 45.8364 109.259 45.0674 108.711 44.399L108.747 44.2266H118.247L118.211 44.399C117.569 45.0674 117.064 45.8076 116.711 46.6197C116.357 47.4318 116.047 48.4739 115.795 49.7315L114.828 54.5538C113.883 55.2868 112.715 55.9049 111.322 56.3936C109.93 56.8894 108.321 57.1338 106.504 57.1338Z" fill="white"/>
<path d="M118.464 56.4437C119.084 55.7754 119.589 55.0208 119.964 54.1727C120.347 53.3247 120.65 52.3042 120.881 51.1112L123.434 38.0315C123.665 36.8817 123.759 35.8756 123.708 34.9988C123.665 34.1292 123.456 33.3602 123.088 32.6919L123.124 32.5194H132.798L132.762 32.6919C132.141 33.3602 131.636 34.1148 131.261 34.9629C130.879 35.8109 130.576 36.8314 130.345 38.0244L129.241 43.7018H136.845L137.948 38.0244C138.179 36.8745 138.273 35.8684 138.222 34.9916C138.179 34.122 137.97 33.353 137.602 32.6847L137.638 32.5122H147.312L147.276 32.6847C146.655 33.353 146.15 34.1076 145.775 34.9557C145.393 35.8037 145.09 36.8242 144.859 38.0172L142.305 51.0969C142.074 52.2467 141.981 53.2529 142.031 54.1224C142.074 54.992 142.284 55.761 142.652 56.4293L142.616 56.6018H132.942L132.978 56.4293C133.598 55.761 134.103 55.0064 134.478 54.1584C134.861 53.3103 135.164 52.2898 135.395 51.0969L136.635 44.7295H129.032L127.791 51.0969C127.56 52.2467 127.467 53.2529 127.517 54.1224C127.56 54.992 127.77 55.761 128.138 56.4293L128.101 56.6018H118.428L118.464 56.4293V56.4437Z" fill="white"/>
<path d="M151.395 56.444C152.015 55.7756 152.52 55.021 152.895 54.173C153.277 53.325 153.58 52.3045 153.811 51.1115L157.231 33.5545H156.985C155.997 33.5545 154.994 33.7917 153.977 34.2804C152.96 34.7619 151.921 35.5237 150.846 36.5729C149.772 37.6222 148.711 38.9661 147.651 40.619H147.304L149.93 32.5269H171.802L171.492 40.619H171.146C170.821 39.2176 170.352 37.9887 169.732 36.9323C169.112 35.8758 168.347 35.0494 167.452 34.4529C166.551 33.8564 165.526 33.5545 164.379 33.5545H164.141L160.722 51.1115C160.491 52.2614 160.397 53.2675 160.448 54.1371C160.491 55.0067 160.7 55.7756 161.068 56.444L161.032 56.6165H151.359L151.395 56.444Z" fill="white"/>
<path d="M175.135 56.4439C175.755 55.7755 176.26 55.0209 176.635 54.1729C177.018 53.3249 177.321 52.3044 177.552 51.1114L178.345 47.0509L175.546 38.3766C175.178 37.2555 174.76 36.2422 174.284 35.3511C173.815 34.4527 173.216 33.576 172.502 32.6992L172.538 32.5267H183.561L183.525 32.6992C182.904 33.4322 182.493 34.2803 182.298 35.2289C182.103 36.1775 182.19 37.234 182.558 38.3766L184.773 45.4339L188.985 38.8222C189.793 37.5574 190.298 36.3931 190.507 35.3295C190.717 34.2587 190.623 33.3819 190.233 32.692L190.269 32.5195H196.387L196.351 32.692C193.819 34.4384 191.893 36.3285 190.58 38.3695L185.328 46.6341L184.462 51.1114C184.232 52.2325 184.145 53.2314 184.203 54.1082C184.26 54.9778 184.52 55.7611 184.982 56.451L184.946 56.6235H175.099L175.135 56.451V56.4439Z" fill="white"/>
<path d="M295.568 56.4439C296.189 55.7755 296.694 55.0209 297.069 54.1729C297.451 53.3249 297.754 52.3044 297.985 51.1114L300.539 38.0317C300.769 36.8818 300.863 35.8757 300.813 34.9989C300.769 34.1293 300.56 33.3604 300.192 32.692L300.228 32.5195H318.097L317.823 40.0943H317.476C317.152 38.6713 316.683 37.4927 316.063 36.5512C315.442 35.6098 314.562 34.8768 313.415 34.3449C312.275 33.8203 310.782 33.5544 308.943 33.5544H308.322L306.281 44.0541H307.319C308.842 44.0541 310.133 43.6948 311.193 42.9689C312.254 42.2431 313.141 41.1722 313.855 39.7493H314.201L312.333 49.3866H311.987C311.799 47.9636 311.323 46.8928 310.551 46.167C309.779 45.4411 308.632 45.0818 307.11 45.0818H306.071L304.03 55.5815H305.415C308.084 55.5815 310.263 55.0353 311.943 53.9429C313.624 52.8505 315.146 51.2192 316.503 49.0344H316.849L314.36 56.6092H295.525L295.561 56.4367L295.568 56.4439Z" fill="white"/>
<path d="M317.166 56.4078C317.974 55.6963 318.681 54.8411 319.294 53.8422C319.907 52.8432 320.311 51.8155 320.521 50.7591L322.937 38.3621C323.146 37.3057 323.132 36.2852 322.901 35.3006C322.67 34.3161 322.302 33.4537 321.797 32.7206L321.833 32.5122H329.191L338.18 47.1442L339.875 38.3621C340.084 37.3057 340.07 36.2852 339.839 35.3006C339.608 34.3161 339.24 33.4537 338.735 32.7206L338.771 32.5122H344.47L344.434 32.7206C343.626 33.4321 342.919 34.2873 342.306 35.2862C341.693 36.2852 341.289 37.3129 341.08 38.3693L337.523 56.6162H336.138L324.322 37.3704L321.732 50.7591C321.523 51.8155 321.538 52.836 321.769 53.8206C321.999 54.8052 322.367 55.6676 322.872 56.4006L322.836 56.609H317.137L317.173 56.4006L317.166 56.4078Z" fill="white"/>
<path d="M355.522 57.1338C353.242 57.1338 351.229 56.7098 349.491 55.8617C347.752 55.0137 346.396 53.7992 345.43 52.2325C344.463 50.6586 343.98 48.8332 343.98 46.7419C343.98 43.6229 344.636 40.9495 345.949 38.7216C347.262 36.4937 348.935 34.8193 350.963 33.6981C352.99 32.577 355.074 32.0093 357.217 32.0093C359.056 32.0093 360.687 32.1818 362.086 32.5267C363.486 32.8717 364.676 33.3676 365.642 34.0072L364.229 41.201H363.882C363.399 38.8366 362.584 36.889 361.444 35.3654C360.304 33.8419 358.912 33.0729 357.282 33.0729C355.926 33.0729 354.757 33.7125 353.79 34.9845C352.824 36.2566 352.095 37.8879 351.612 39.8715C351.128 41.855 350.883 43.9032 350.883 46.016C350.883 48.1289 351.128 49.8825 351.626 51.2838C352.124 52.6852 352.816 53.7201 353.718 54.3957C354.62 55.0712 355.702 55.409 356.964 55.409H357.484L358.587 49.7315C358.818 48.5817 358.869 47.5755 358.739 46.706C358.609 45.8364 358.27 45.0674 357.722 44.399L357.758 44.2266H367.258L367.222 44.399C366.58 45.0674 366.075 45.8076 365.722 46.6197C365.368 47.4318 365.058 48.4739 364.806 49.7315L363.839 54.5538C362.894 55.2868 361.725 55.9049 360.333 56.3936C358.941 56.8894 357.332 57.1338 355.514 57.1338H355.522Z" fill="white"/>
<path d="M367.655 56.4439C368.275 55.7755 368.78 55.0209 369.156 54.1729C369.538 53.3249 369.841 52.3044 370.072 51.1114L372.633 38.0317C372.863 36.8818 372.957 35.8757 372.907 34.9989C372.863 34.1293 372.654 33.3604 372.286 32.692L372.322 32.5195H381.996L381.96 32.692C381.34 33.3604 380.835 34.115 380.459 34.963C380.077 35.811 379.774 36.8315 379.543 38.0245L376.99 51.1042C376.759 52.254 376.665 53.2602 376.716 54.1298C376.759 54.9993 376.968 55.7683 377.336 56.4367L377.3 56.6092H367.626L367.662 56.4367L367.655 56.4439Z" fill="white"/>
<path d="M380.474 56.4078C381.282 55.6963 381.989 54.8411 382.602 53.8422C383.215 52.8432 383.619 51.8155 383.828 50.7591L386.245 38.3621C386.454 37.3057 386.44 36.2852 386.209 35.3006C385.978 34.3161 385.61 33.4537 385.105 32.7206L385.141 32.5122H392.499L401.488 47.1442L403.183 38.3621C403.392 37.3057 403.378 36.2852 403.147 35.3006C402.916 34.3161 402.548 33.4537 402.043 32.7206L402.079 32.5122H407.778L407.742 32.7206C406.934 33.4321 406.227 34.2873 405.614 35.2862C405.001 36.2852 404.597 37.3129 404.387 38.3693L400.831 56.6162H399.446L387.63 37.3704L385.04 50.7591C384.831 51.8155 384.845 52.836 385.076 53.8206C385.307 54.8052 385.675 55.6676 386.18 56.4006L386.144 56.609H380.445L380.481 56.4006L380.474 56.4078Z" fill="white"/>
<path d="M405.873 56.4439C406.494 55.7755 406.999 55.0209 407.374 54.1729C407.756 53.3249 408.059 52.3044 408.29 51.1114L410.844 38.0317C411.075 36.8818 411.168 35.8757 411.118 34.9989C411.075 34.1293 410.865 33.3604 410.497 32.692L410.534 32.5195H428.402L428.128 40.0943H427.782C427.457 38.6713 426.988 37.4927 426.368 36.5512C425.747 35.6098 424.867 34.8768 423.72 34.3449C422.58 33.8203 421.087 33.5544 419.248 33.5544H418.627L416.586 44.0541H417.625C419.147 44.0541 420.438 43.6948 421.498 42.9689C422.559 42.2431 423.446 41.1722 424.16 39.7493H424.507L422.638 49.3866H422.292C422.104 47.9636 421.628 46.8928 420.856 46.167C420.085 45.4411 418.938 45.0818 417.415 45.0818H416.377L414.335 55.5815H415.72C418.389 55.5815 420.568 55.0353 422.249 53.9429C423.929 52.8505 425.452 51.2192 426.808 49.0344H427.154L424.665 56.6092H405.83L405.866 56.4367L405.873 56.4439Z" fill="white"/>
<path d="M428.301 56.4439C428.921 55.7755 429.426 55.0209 429.801 54.1729C430.184 53.3249 430.487 52.3044 430.718 51.1114L433.271 38.0317C433.502 36.8818 433.596 35.8757 433.545 34.9989C433.502 34.1293 433.293 33.3604 432.925 32.692L432.961 32.5195H450.829L450.555 40.0943H450.209C449.884 38.6713 449.416 37.4927 448.795 36.5512C448.175 35.6098 447.295 34.8768 446.148 34.3449C445.008 33.8203 443.515 33.5544 441.675 33.5544H441.055L439.013 44.0541H440.052C441.574 44.0541 442.866 43.6948 443.926 42.9689C444.986 42.2431 445.874 41.1722 446.588 39.7493H446.934L445.066 49.3866H444.719C444.532 47.9636 444.056 46.8928 443.284 46.167C442.512 45.4411 441.365 45.0818 439.843 45.0818H438.804L436.763 55.5815H438.148C440.817 55.5815 442.995 55.0353 444.676 53.9429C446.357 52.8505 447.879 51.2192 449.235 49.0344H449.581L447.093 56.6092H428.258L428.294 56.4367L428.301 56.4439Z" fill="white"/>
<path d="M470.84 56.9614C469.39 56.9614 468.222 56.6021 467.334 55.8906C466.447 55.1791 465.791 54.2593 465.365 53.1381C464.939 52.017 464.665 50.7522 464.55 49.3508C464.478 48.5243 464.37 47.8272 464.218 47.2667C464.067 46.7061 463.836 46.2533 463.526 45.9228C463.215 45.5922 462.797 45.4269 462.263 45.4269H461.16L460.056 51.1043C459.847 52.1608 459.76 53.1453 459.796 54.0652C459.832 54.9851 460.034 55.7756 460.402 56.444L460.366 56.6165H450.692L450.728 56.444C451.349 55.7756 451.854 55.021 452.229 54.173C452.611 53.325 452.914 52.3045 453.145 51.1115L455.699 38.0318C455.908 36.9538 455.994 35.9621 455.958 35.0566C455.922 34.151 455.72 33.3605 455.352 32.6993L455.389 32.5269H466.447C468.085 32.5269 469.549 32.7137 470.855 33.0802C472.153 33.4467 473.206 34.0432 474 34.8697C474.793 35.6962 475.19 36.7598 475.19 38.0749C475.19 39.4979 474.83 40.7124 474.115 41.7042C473.401 42.7031 472.442 43.4721 471.23 44.0111C470.018 44.5501 468.655 44.8663 467.132 44.9597L467.096 45.1322C468.222 45.2472 469.138 45.6137 469.845 46.2318C470.545 46.8498 471.064 47.5829 471.403 48.4381C471.735 49.2861 472.031 50.3066 472.283 51.4996C472.492 52.5345 472.673 53.3034 472.817 53.8065C472.968 54.3096 473.141 54.6761 473.336 54.9061C473.531 55.136 473.791 55.251 474.115 55.251C474.462 55.251 474.772 55.136 475.046 54.9061L475.32 55.251C474.909 55.7325 474.325 56.1422 473.574 56.4727C472.824 56.8033 471.908 56.9758 470.826 56.9758L470.84 56.9614ZM463.1 44.392C464.16 44.392 465.069 44.0399 465.827 43.3428C466.584 42.6456 467.169 41.7114 467.572 40.5543C467.976 39.3973 468.178 38.1756 468.178 36.8891C468.178 35.8758 467.94 35.0566 467.45 34.4098C466.967 33.7701 466.231 33.4467 465.235 33.4467C464.824 33.4467 464.485 33.4899 464.233 33.5689C463.98 33.648 463.699 33.7845 463.403 33.9642L461.361 44.3992H463.093L463.1 44.392Z" fill="white"/>
<path d="M487.497 57.1339C485.217 57.1339 483.197 56.8392 481.43 56.2571C479.67 55.675 478.335 55.0354 477.441 54.3454L478.963 46.4976H479.309C479.792 49.3004 480.737 51.6001 482.144 53.3968C483.551 55.2006 485.39 56.099 487.677 56.099C488.579 56.099 489.322 55.9409 489.921 55.6318C490.519 55.3228 490.959 54.906 491.233 54.3742C491.508 53.8496 491.645 53.2531 491.645 52.5847C491.645 51.9163 491.486 51.3774 491.161 50.8958C490.837 50.4143 490.382 49.9472 489.798 49.5016C489.214 49.0561 488.261 48.4165 486.949 47.59C485.362 46.5767 484.092 45.6999 483.147 44.9525C482.202 44.2051 481.416 43.3355 480.795 42.3366C480.175 41.3376 479.865 40.2093 479.865 38.9445C479.865 37.4281 480.326 36.1489 481.25 35.1068C482.173 34.0647 483.378 33.2814 484.878 32.764C486.379 32.2465 488.002 31.9878 489.747 31.9878C491.385 31.9878 492.936 32.1675 494.415 32.5196C495.886 32.8789 497.084 33.3604 498.007 33.9857L496.593 41.3161H496.247C495.627 38.6786 494.71 36.6376 493.499 35.1858C492.287 33.7413 490.772 33.0155 488.954 33.0155C487.821 33.0155 486.927 33.2886 486.256 33.8276C485.585 34.3666 485.253 35.1427 485.253 36.1489C485.253 36.7454 485.405 37.2628 485.701 37.7012C486.004 38.1396 486.472 38.5995 487.114 39.081C487.756 39.5625 488.867 40.2956 490.433 41.2873C491.861 42.1856 493.015 42.9834 493.903 43.6805C494.79 44.3776 495.547 45.2184 496.182 46.1958C496.817 47.1732 497.134 48.2655 497.134 49.4873C497.134 51.2552 496.716 52.7069 495.894 53.8424C495.071 54.9779 493.924 55.8115 492.474 56.3361C491.024 56.8608 489.365 57.1267 487.497 57.1267V57.1339Z" fill="white"/>
</g>
<defs>
<clipPath id="clip0_1_202">
<rect width="498" height="102" fill="white"/>
</clipPath>
</defs>
</svg>
